<?xml version="1.0" standalone="no"?>
<!DOCTYPE svg PUBLIC "-//W3C//DTD SVG 20010904//EN"
 "http://www.w3.org/TR/2001/REC-SVG-20010904/DTD/svg10.dtd">
<svg version="1.0" xmlns="http://www.w3.org/2000/svg"
 width="512.000000pt" height="512.000000pt" viewBox="0 0 512.000000 512.000000"
 preserveAspectRatio="xMidYMid meet">

<g transform="translate(0.000000,512.000000) scale(0.100000,-0.100000)"
fill="#000000" stroke="none">
<path d="M0 2560 l0 -2560 2560 0 2560 0 0 2560 0 2560 -2560 0 -2560 0 0
-2560z m2596 2499 c13 -15 26 -19 45 -15 18 3 32 0 40 -10 9 -11 22 -14 43 -9
17 4 57 9 89 12 56 5 57 4 57 -21 0 -34 -14 -40 -49 -21 -40 20 -51 19 -51 -5
0 -19 -4 -20 -37 -14 -21 3 -48 13 -61 21 -17 11 -27 11 -37 3 -10 -8 -19 -5
-37 12 -12 13 -36 33 -53 45 l-30 22 31 1 c19 0 38 -8 50 -21z m164 11 c11 -7
12 -12 4 -20 -13 -13 -67 7 -58 21 7 12 35 11 54 -1z m-362 -21 c2 -5 17 -9
33 -9 49 0 35 -43 -18 -54 -30 -7 -31 -8 -14 -25 10 -10 25 -21 35 -24 19 -7
13 -27 -9 -27 -7 0 -27 14 -45 30 -22 20 -39 29 -51 25 -13 -4 -19 -1 -19 9 0
8 10 18 22 22 12 3 28 12 35 19 10 10 7 15 -17 25 -17 7 -30 17 -30 22 0 13
74 0 78 -13z m94 9 c-9 -9 -15 -9 -24 0 -9 9 -7 12 12 12 19 0 21 -3 12 -12z
m-229 -5 c-7 -2 -19 -2 -25 0 -7 3 -2 5 12 5 14 0 19 -2 13 -5z m761 -9 c9 -3
14 -10 11 -14 -3 -5 -1 -11 4 -14 10 -6 -8 -66 -23 -77 -4 -4 -3 -10 3 -13 21
-13 12 -36 -14 -36 -18 0 -25 5 -25 20 0 13 -9 22 -27 26 -16 4 -32 9 -37 12
-13 7 22 20 55 21 21 1 28 7 32 29 3 15 4 28 2 30 -1 2 -21 -5 -44 -14 -34
-13 -44 -14 -57 -3 -14 12 -14 14 2 26 18 13 90 18 118 7z m-889 -31 c-24 -17
-35 -17 -35 1 0 8 8 16 18 19 27 6 37 -5 17 -20z m136 -12 c4 -18 13 -38 21
-42 22 -15 -11 -30 -52 -25 -148 21 -165 29 -80 36 56 4 65 7 62 24 -10 55 38
62 49 7z m916 5 c13 -13 -12 -27 -36 -21 -32 8 -45 20 -37 33 6 10 61 0 73
-12z m-1147 -9 c0 -13 5 -28 10 -33 16 -16 -16 -40 -34 -25 -10 9 -11 18 -2
46 12 40 26 46 26 12z m500 -9 c42 -31 37 -41 -16 -35 -55 6 -73 19 -54 42 17
21 35 19 70 -7z m-645 -18 c3 -5 1 -10 -4 -10 -6 0 -11 5 -11 10 0 6 2 10 4
10 3 0 8 -4 11 -10z m803 -18 c3 -18 -2 -22 -22 -22 -28 0 -34 18 -14 38 17
17 32 10 36 -16z m412 18 c0 -5 -9 -10 -20 -10 -11 0 -20 5 -20 10 0 6 9 10
20 10 11 0 20 -4 20 -10z m-1171 -17 c0 -11 -3 -13 -6 -5 -2 6 -10 9 -15 6 -7
-4 -8 -2 -4 4 11 18 26 14 25 -5z m1306 6 c4 -6 5 -12 2 -15 -7 -7 -37 7 -37
17 0 13 27 11 35 -2z m109 -1 c52 -15 65 -26 46 -39 -13 -8 -13 -11 3 -23 10
-8 30 -12 43 -10 14 3 35 -2 47 -11 12 -8 40 -15 62 -15 29 0 36 -3 25 -10
-22 -14 -63 -12 -85 4 -12 8 -33 12 -57 9 -35 -5 -38 -3 -54 31 -20 41 -29 44
-44 17 -15 -30 -12 -40 14 -53 14 -6 26 -20 28 -32 3 -20 9 -21 103 -20 55 0
92 -2 83 -4 -11 -2 -15 -9 -11 -19 5 -13 3 -15 -13 -8 -10 4 -50 9 -88 9 -56
1 -76 -3 -101 -19 -29 -20 -55 -23 -55 -6 0 5 12 20 27 35 34 34 25 51 -40 84
-26 13 -47 30 -47 38 0 18 14 18 30 -1 18 -22 33 -7 26 26 -6 33 -2 34 58 17z
m-169 -34 c29 -29 34 -39 24 -50 -17 -21 -31 -17 -24 6 5 16 2 20 -19 20 -15
0 -30 8 -36 19 -27 52 5 55 55 5z m-80 1 c0 -13 -8 -21 -22 -23 -17 -3 -23 2
-23 16 0 10 3 22 7 26 13 13 38 1 38 -19z m-1347 9 c12 -4 22 -14 22 -24 0
-15 -9 -18 -50 -18 -42 0 -50 3 -50 18 0 11 9 20 23 23 12 2 24 5 27 6 3 0 15
-2 28 -5z m368 -6 c9 -14 -23 -38 -53 -38 -31 0 -32 37 0 43 40 8 46 7 53 -5z
m452 -11 c3 -13 -7 -22 -37 -34 -31 -12 -41 -22 -43 -42 -2 -18 -10 -27 -25
-29 -13 -2 -23 2 -23 8 0 6 10 25 23 42 50 71 97 95 105 55z m259 -6 c19 -25
16 -31 -19 -31 -36 0 -69 25 -61 46 7 19 62 9 80 -15z m-989 2 c-1 -10 1 -24
5 -30 13 -21 -2 -33 -39 -33 -39 0 -49 27 -11 32 14 2 23 11 25 26 2 12 8 22
13 22 6 0 9 -8 7 -17z m119 -2 c-5 -22 10 -31 54 -31 18 0 29 -5 29 -14 0 -10
-15 -13 -55 -12 -46 0 -55 3 -55 18 0 10 -7 18 -15 18 -17 0 -18 2 -9 24 3 9
17 16 31 16 20 0 24 -4 20 -19z m403 -12 c0 -10 -34 -12 -43 -2 -4 3 -2 12 4
20 9 10 15 10 25 2 8 -6 14 -15 14 -20z m295 12 c11 -19 -18 -61 -42 -61 -26
0 -27 3 -12 33 18 34 42 46 54 28z m289 -34 c8 -13 8 -20 -2 -26 -8 -4 -12
-17 -10 -27 2 -16 -3 -19 -31 -19 -41 0 -52 21 -18 34 20 8 24 15 19 36 -4 22
-1 26 13 23 10 -1 23 -11 29 -21z m-694 3 c0 -5 -11 -12 -25 -16 -13 -3 -29
-12 -36 -20 -14 -17 -49 -19 -49 -2 0 25 34 48 72 48 21 0 38 -4 38 -10z m850
-5 c19 -23 -1 -39 -39 -30 -46 10 -39 42 10 44 9 1 22 -6 29 -14z m-1400 -15
c0 -11 -8 -23 -17 -26 -63 -19 -166 -79 -193 -115 -18 -21 -36 -39 -42 -39
-15 0 19 50 63 90 20 19 40 45 44 58 5 17 14 22 38 22 18 1 43 7 57 15 35 20
50 18 50 -5z m610 -5 c0 -8 -6 -15 -14 -15 -7 0 -19 7 -26 15 -11 13 -8 15 14
15 16 0 26 -5 26 -15z m-770 -1 c0 -11 -25 -30 -57 -43 -18 -7 -39 -24 -48
-37 -10 -15 -25 -24 -41 -24 l-26 0 23 25 c13 13 30 25 37 25 6 0 21 9 33 21
26 26 79 48 79 33z m1275 -19 c0 -15 -8 -21 -29 -23 -37 -4 -54 11 -36 33 19
23 65 16 65 -10z m-695 -26 c0 -23 -19 -24 -46 -4 -19 15 -19 15 0 30 23 17
46 4 46 -26z m-222 1 c4 -23 -11 -40 -35 -40 -16 0 -16 10 -3 45 12 31 34 28
38 -5z m1342 5 c0 -16 -80 -29 -94 -15 -15 15 3 25 53 27 27 0 41 -3 41 -12z
m-883 -15 c3 -11 12 -20 19 -20 8 0 14 -7 14 -15 0 -8 -9 -15 -20 -15 -13 0
-20 7 -20 19 0 10 -7 22 -16 25 -8 3 -12 10 -9 16 10 16 27 11 32 -10z m-617
3 c0 -9 -71 -73 -81 -73 -20 0 -17 21 6 36 14 9 25 23 25 30 0 8 10 14 25 14
14 0 25 -3 25 -7z m250 -13 c0 -5 -7 -10 -15 -10 -8 0 -15 5 -15 10 0 6 7 10
15 10 8 0 15 -4 15 -10z m268 1 c12 -7 11 -14 -2 -40 -16 -30 -39 -40 -51 -22
-3 5 -1 12 5 16 5 3 10 17 10 31 0 25 14 30 38 15z m302 -6 c0 -8 -9 -15 -20
-15 -20 0 -26 11 -13 23 12 13 33 7 33 -8z m528 4 c-2 -6 -8 -10 -13 -10 -5 0
-11 4 -13 10 -2 6 4 11 13 11 9 0 15 -5 13 -11z m642 -4 c17 -9 30 -17 30 -20
0 -7 -63 14 -74 25 -15 15 10 12 44 -5z m-715 -10 c0 -5 -10 -11 -22 -13 -16
-2 -23 2 -23 13 0 11 7 15 23 13 12 -2 22 -7 22 -13z m-355 -4 c0 -15 -16 -22
-34 -15 -25 9 -19 24 9 24 14 0 25 -4 25 -9z m180 -1 c0 -5 -7 -10 -15 -10 -8
0 -15 5 -15 10 0 6 7 10 15 10 8 0 15 -4 15 -10z m760 0 c0 -5 -4 -10 -10 -10
-5 0 -10 5 -10 10 0 6 5 10 10 10 6 0 10 -4 10 -10z m-1767 -34 c2 -17 -1 -34
-7 -38 -6 -5 -12 0 -14 12 -5 30 -26 42 -56 30 -22 -8 -26 -7 -26 9 0 16 8 19
49 19 47 0 49 -1 54 -32z m1294 -14 c1 -29 -3 -42 -12 -42 -20 0 -28 19 -15
34 8 11 8 15 -1 18 -8 3 -10 11 -6 22 12 31 32 11 34 -32z m-565 -4 c-17 -17
-47 9 -30 29 10 12 13 12 27 -1 11 -12 12 -19 3 -28z m356 19 c3 -14 -1 -18
-20 -15 -12 2 -24 11 -26 21 -3 14 1 18 20 15 12 -2 24 -11 26 -21z m-1584 7
c15 -6 11 -34 -5 -34 -4 0 -6 7 -3 15 4 8 2 15 -4 15 -6 0 -13 -6 -15 -12 -3
-8 -6 -6 -6 5 -1 18 7 21 33 11z m681 -21 c-10 -44 -27 -55 -69 -48 -47 9 -42
31 6 27 31 -3 36 0 42 22 3 14 11 26 17 26 7 0 9 -10 4 -27z m435 13 c0 -8 -5
-18 -11 -22 -14 -8 -33 11 -25 25 10 16 36 13 36 -3z m1028 -11 c-4 -19 2 -30
28 -50 19 -14 34 -33 34 -41 0 -31 -36 -7 -71 46 -15 23 -19 24 -49 13 -33
-12 -50 -10 -50 8 0 5 10 9 23 9 12 0 33 9 47 20 34 26 43 25 38 -5z m202 15
c0 -5 -4 -10 -10 -10 -5 0 -10 5 -10 10 0 6 5 10 10 10 6 0 10 -4 10 -10z
m147 -16 c-9 -9 -28 6 -21 18 4 6 10 6 17 -1 6 -6 8 -13 4 -17z m-72 -4 c3 -5
1 -10 -4 -10 -6 0 -11 5 -11 10 0 6 2 10 4 10 3 0 8 -4 11 -10z m-505 -10 c0
-5 -9 -10 -19 -10 -11 0 -21 -5 -23 -12 -2 -6 -10 -8 -16 -4 -17 10 -15 24 6
29 31 8 52 7 52 -3z m-1683 -36 c-6 -34 -25 -69 -34 -61 -2 3 2 16 8 31 10 20
10 29 1 38 -18 18 -14 28 9 28 19 0 21 -4 16 -36z m1753 6 c0 -21 -5 -30 -16
-30 -11 0 -14 5 -10 16 4 9 1 23 -5 30 -9 11 -7 14 10 14 17 0 21 -6 21 -30z
m337 14 c9 -24 -11 -37 -46 -29 -38 8 -40 20 -3 33 38 14 42 14 49 -4z m-2287
-2 c0 -4 -12 -9 -27 -10 -22 -1 -24 0 -13 8 18 12 40 13 40 2z m290 -2 c13 -9
13 -11 0 -20 -28 -18 -60 -4 -45 20 8 13 26 13 45 0z m460 0 c0 -12 -28 -25
-36 -17 -9 9 6 27 22 27 8 0 14 -5 14 -10z m1656 -8 c14 -8 0 -52 -16 -52 -16
0 -30 44 -16 52 6 4 13 8 16 8 3 0 10 -4 16 -8z m-2546 -12 c0 -5 -7 -10 -15
-10 -8 0 -15 5 -15 10 0 6 7 10 15 10 8 0 15 -4 15 -10z m1030 -5 c0 -8 -9
-15 -20 -15 -20 0 -26 11 -13 23 12 13 33 7 33 -8z m145 6 c3 -5 1 -13 -5 -16
-15 -9 -43 3 -35 15 8 13 32 13 40 1z m235 -1 c0 -5 -7 -10 -16 -10 -8 0 -12
5 -9 10 3 6 10 10 16 10 5 0 9 -4 9 -10z m267 -16 c-3 -4 -14 -3 -24 0 -15 6
-15 8 -3 16 16 10 39 -4 27 -16z m150 10 c9 -23 -13 -40 -32 -24 -8 7 -15 19
-15 26 0 19 39 18 47 -2z m838 -5 c8 -23 -7 -45 -24 -35 -6 4 -11 18 -11 32 0
30 26 32 35 3z m-2495 -14 c0 -14 -4 -25 -9 -25 -5 0 -30 -21 -56 -46 -26 -25
-50 -43 -53 -40 -3 3 18 27 46 54 29 26 52 55 52 65 0 9 5 17 10 17 6 0 10
-11 10 -25z m400 20 c0 -5 -55 -35 -65 -35 -11 0 -5 28 8 33 16 7 57 8 57 2z
m1030 -8 c0 -21 -12 -28 -27 -16 -19 16 -16 29 7 29 11 0 20 -6 20 -13z
m-1552 -39 c-2 -6 -13 -13 -24 -14 -114 -14 -128 -15 -112 -4 10 6 43 14 75
19 32 5 60 9 61 10 2 0 2 -4 0 -11z m990 -9 c17 -27 10 -34 -20 -17 -12 7 -25
14 -27 15 -1 1 0 6 4 12 10 17 29 13 43 -10z m357 12 c3 -5 1 -13 -5 -16 -15
-9 -43 3 -35 15 8 13 32 13 40 1z m-1185 -21 c0 -5 7 -10 15 -10 8 0 15 -7 15
-15 0 -8 -2 -15 -4 -15 -2 0 -12 -3 -21 -7 -14 -5 -16 -2 -10 15 5 16 2 22 -9
22 -9 0 -16 5 -16 10 0 6 7 10 15 10 8 0 15 -4 15 -10z m2440 -5 c0 -9 -6 -12
-15 -9 -8 4 -15 10 -15 15 0 5 7 9 15 9 8 0 15 -7 15 -15z m-2770 -5 c0 -5 -5
-10 -11 -10 -5 0 -7 5 -4 10 3 6 8 10 11 10 2 0 4 -4 4 -10z m625 0 c3 -6 -1
-13 -10 -16 -19 -8 -30 0 -20 15 8 14 22 14 30 1z m285 -11 c0 -5 -7 -9 -15
-9 -15 0 -20 12 -9 23 8 8 24 -1 24 -14z m1390 1 c0 -5 -2 -10 -4 -10 -3 0 -8
5 -11 10 -3 6 -1 10 4 10 6 0 11 -4 11 -10z m270 6 c0 -3 -4 -8 -10 -11 -5 -3
-10 -1 -10 4 0 6 5 11 10 11 6 0 10 -2 10 -4z m100 -1 c0 -18 -34 -53 -46 -48
-17 6 -19 39 -1 46 17 7 47 8 47 2z m193 -21 c-9 -15 -19 -21 -21 -15 -6 19 6
41 23 41 14 0 13 -3 -2 -26z m-1005 4 c-3 -7 -11 -13 -18 -13 -7 0 -15 6 -17
13 -3 7 4 12 17 12 13 0 20 -5 18 -12z m596 -12 c-3 -9 -10 -16 -15 -16 -14 0
-11 28 4 33 16 6 19 3 11 -17z m-2500 0 c-8 -20 -34 -29 -34 -11 0 7 8 16 18
18 9 3 18 5 19 6 1 0 0 -5 -3 -13z m2044 -9 c2 -11 -3 -17 -17 -17 -23 0 -35
15 -26 31 10 15 39 6 43 -14z m175 16 c-7 -2 -19 -2 -25 0 -7 3 -2 5 12 5 14
0 19 -2 13 -5z m-2115 -20 c2 -8 -6 -13 -22 -13 -25 0 -33 10 -19 24 10 10 36
3 41 -11z m1210 -10 c4 -26 -14 -30 -43 -10 -23 17 -11 39 18 35 14 -2 23 -11
25 -25z m1288 12 c10 -26 0 -37 -20 -22 -11 8 -16 19 -12 25 10 16 26 15 32
-3z m-2146 -5 c0 -12 -28 -25 -36 -17 -9 9 6 27 22 27 8 0 14 -5 14 -10z
m2352 -7 c10 -9 18 -23 18 -31 0 -12 -6 -10 -25 8 -38 35 -31 58 7 23z m231 2
c4 -8 2 -17 -3 -20 -6 -4 -10 2 -10 12 0 15 -2 16 -10 3 -5 -8 -10 -10 -10 -4
0 25 25 32 33 9z m-2203 -10 c0 -8 -9 -15 -20 -15 -20 0 -26 11 -13 23 12 13
33 7 33 -8z m1592 0 c0 -5 -5 -11 -11 -13 -6 -2 -11 4 -11 13 0 9 5 15 11 13
6 -2 11 -8 11 -13z m-2067 -5 c-3 -5 -10 -10 -16 -10 -5 0 -9 5 -9 10 0 6 7
10 16 10 8 0 12 -4 9 -10z m-214 -20 c-26 -23 -30 -23 -51 -10 -13 9 -13 11 0
20 8 5 29 10 45 10 l30 -1 -24 -19z m2849 -5 c0 -3 -9 -5 -20 -5 -11 0 -20 7
-20 15 0 13 4 14 20 5 11 -6 20 -13 20 -15z m-2970 -5 c0 -12 -7 -20 -17 -20
-9 0 -27 -10 -40 -22 -35 -33 -37 -16 -2 25 35 41 59 48 59 17z m2240 5 c0 -8
-6 -15 -14 -15 -17 0 -28 14 -19 24 12 12 33 6 33 -9z m660 -5 c29 -22 23 -34
-14 -24 -33 8 -56 44 -29 44 10 0 29 -9 43 -20z m-3000 0 c8 -5 11 -10 5 -10
-5 0 -17 5 -25 10 -8 5 -10 10 -5 10 6 0 17 -5 25 -10z m714 -15 c23 -35 20
-47 -11 -43 -23 2 -29 8 -31 36 -4 40 18 44 42 7z m1244 7 c2 -7 -3 -12 -12
-12 -9 0 -16 7 -16 16 0 17 22 14 28 -4z m882 4 c0 -9 -7 -12 -20 -9 -11 3
-20 9 -20 14 0 5 9 9 20 9 11 0 20 -6 20 -14z m-2700 -5 c0 -5 -7 -14 -15 -21
-13 -10 -15 -9 -15 9 0 12 6 21 15 21 8 0 15 -4 15 -9z m285 -1 c-3 -5 -13
-10 -21 -10 -8 0 -12 5 -9 10 3 6 13 10 21 10 8 0 12 -4 9 -10z m2785 -27 c0
-11 -8 -14 -29 -11 -17 2 -28 1 -25 -4 3 -4 0 -8 -5 -8 -12 0 -14 -29 -5 -54
4 -11 14 -13 33 -10 20 4 30 1 34 -9 4 -12 -3 -15 -36 -13 -37 2 -42 5 -49 33
-6 22 -15 33 -31 35 -17 2 -22 10 -24 38 l-2 35 12 -27 c12 -32 47 -39 47 -10
0 22 49 43 68 29 6 -5 12 -16 12 -24z m-2630 -4 c0 -12 -7 -19 -20 -19 -22 0
-29 35 -7 43 18 6 27 -2 27 -24z m450 12 c0 -27 -10 -51 -22 -51 -6 0 -8 7 -5
15 4 8 2 17 -3 20 -13 8 -1 35 16 35 8 0 14 -9 14 -19z m-760 -7 c0 -8 -4 -12
-10 -9 -5 3 -10 10 -10 16 0 5 5 9 10 9 6 0 10 -7 10 -16z m48 4 c-6 -18 -28
-21 -28 -4 0 9 7 16 16 16 9 0 14 -5 12 -12z m2082 -3 c0 -8 -7 -15 -15 -15
-8 0 -15 7 -15 15 0 8 7 15 15 15 8 0 15 -7 15 -15z m-2470 -5 c0 -5 -4 -10
-10 -10 -5 0 -10 5 -10 10 0 6 5 10 10 10 6 0 10 -4 10 -10z m726 -1 c9 -16
-12 -33 -31 -25 -14 5 -15 9 -5 21 15 18 26 19 36 4z m2072 -9 c8 -14 23 -20
49 -20 43 0 37 -12 -9 -17 -35 -4 -78 20 -78 42 0 22 23 18 38 -5z m-2358 -8
c0 -15 -11 -21 -27 -15 -12 5 -12 7 -1 14 17 11 28 11 28 1z m-403 -8 c-3 -3
-12 -4 -19 -1 -8 3 -5 6 6 6 11 1 17 -2 13 -5z m163 -3 c0 -5 -13 -14 -30 -20
-31 -10 -39 -4 -18 17 14 14 48 16 48 3z m2800 -1 c8 -5 12 -12 9 -15 -8 -8
-39 5 -39 16 0 11 11 11 30 -1z m-2995 -10 c3 -5 1 -10 -4 -10 -6 0 -11 5 -11
10 0 6 2 10 4 10 3 0 8 -4 11 -10z m3355 -31 c0 -34 -24 -39 -40 -9 -7 14 -7
20 0 20 5 0 10 7 10 15 0 9 6 12 15 9 9 -4 15 -19 15 -35z m-3066 6 c-6 -16
-24 -21 -24 -7 0 11 11 22 21 22 5 0 6 -7 3 -15z m871 5 c8 -13 -20 -24 -41
-16 -20 8 -9 26 16 26 10 0 22 -5 25 -10z m985 -5 c0 -17 -2 -18 -24 -9 -23 9
-20 24 4 24 11 0 20 -7 20 -15z m954 -6 c34 -26 34 -43 0 -35 -36 9 -75 36
-68 47 9 15 40 10 68 -12z m-3154 4 c0 -12 -43 -53 -57 -53 -7 0 -13 9 -13 20
0 11 4 20 10 20 5 0 6 -7 3 -17 -4 -11 -3 -14 5 -9 7 4 12 13 12 21 0 7 6 16
13 18 18 8 27 8 27 0z m113 -46 c-9 -20 -83 -55 -83 -39 0 3 17 22 38 41 40
39 63 38 45 -2z m2597 28 c0 -8 -9 -15 -20 -15 -11 0 -20 7 -20 15 0 8 9 15
20 15 11 0 20 -7 20 -15z m-2235 -4 c5 -9 -31 -41 -47 -41 -12 0 -9 25 4 38
14 14 35 16 43 3z m-225 -5 c0 -3 -4 -8 -10 -11 -5 -3 -10 -1 -10 4 0 6 5 11
10 11 6 0 10 -2 10 -4z m2564 -35 c3 -4 3 -11 0 -14 -8 -8 -34 3 -34 14 0 11
27 12 34 0z m594 -9 c6 -18 -15 -14 -22 4 -4 10 -1 14 6 12 6 -2 14 -10 16
-16z m-3428 0 c0 -5 -11 -14 -25 -20 -14 -7 -28 -19 -31 -27 -4 -8 -12 -15
-18 -15 -7 0 -23 -11 -36 -25 -25 -26 -40 -32 -40 -15 0 6 8 10 18 11 11 1 9
4 -8 9 -25 8 -25 8 -2 9 31 1 63 19 85 48 10 13 23 21 28 18 5 -4 9 -1 9 4 0
6 5 11 10 11 6 0 10 -4 10 -8z m152 -14 c-6 -6 -15 -8 -19 -4 -4 4 -1 11 7 16
19 12 27 3 12 -12z m448 7 c0 -9 -9 -15 -25 -15 -29 0 -34 16 -7 23 30 8 32 7
32 -8z m2760 -6 c0 -6 -4 -7 -10 -4 -5 3 -10 11 -10 16 0 6 5 7 10 4 6 -3 10
-11 10 -16z m-970 1 c0 -5 -7 -10 -15 -10 -8 0 -15 5 -15 10 0 6 7 10 15 10 8
0 15 -4 15 -10z m840 0 c0 -5 -7 -10 -15 -10 -8 0 -15 5 -15 10 0 6 7 10 15
10 8 0 15 -4 15 -10z m60 -6 c0 -8 -4 -12 -10 -9 -5 3 -10 10 -10 16 0 5 5 9
10 9 6 0 10 -7 10 -16z m210 -5 c0 -6 -4 -7 -10 -4 -5 3 -10 11 -10 16 0 6 5
7 10 4 6 -3 10 -11 10 -16z m-372 -25 c-12 -25 -32 -31 -43 -14 -11 19 1 35
28 36 23 2 25 0 15 -22z m442 -78 c0 -6 -6 -1 -14 9 -8 11 -11 26 -8 34 3 8 1
12 -4 8 -7 -4 -9 6 -6 26 5 31 6 31 18 -18 8 -27 14 -54 14 -59z m-101 47 c14
-48 14 -86 1 -78 -5 3 -10 16 -10 29 0 12 -12 33 -26 45 -21 18 -24 25 -13 32
26 16 38 9 48 -28z m-3229 18 c0 -6 -4 -13 -10 -16 -5 -3 -10 1 -10 9 0 9 5
16 10 16 6 0 10 -4 10 -9z m3130 -6 c0 -8 -7 -15 -15 -15 -8 0 -15 7 -15 15 0
8 7 15 15 15 8 0 15 -7 15 -15z m-2980 -5 c0 -12 -28 -25 -36 -17 -9 9 6 27
22 27 8 0 14 -5 14 -10z m485 0 c-3 -5 -13 -10 -21 -10 -8 0 -12 5 -9 10 3 6
13 10 21 10 8 0 12 -4 9 -10z m1865 -1 c0 -11 -24 -39 -34 -39 -8 0 -7 35 1
43 10 11 33 8 33 -4z m-2910 -19 c0 -5 -5 -10 -11 -10 -5 0 -7 5 -4 10 3 6 8
10 11 10 2 0 4 -4 4 -10z m665 0 c3 -6 -1 -13 -10 -16 -19 -8 -30 0 -20 15 8
14 22 14 30 1z m2735 0 c0 -5 -4 -10 -9 -10 -6 0 -13 5 -16 10 -3 6 1 10 9 10
9 0 16 -4 16 -10z m-3204 -7 c-2 -5 -21 -17 -40 -27 -29 -15 -39 -17 -49 -7
-9 10 -8 15 7 27 20 14 91 20 82 7z m84 -2 c0 -11 -31 -24 -39 -16 -3 3 1 10
9 15 19 12 30 12 30 1z m140 -6 c0 -8 -7 -15 -15 -15 -16 0 -20 12 -8 23 11
12 23 8 23 -8z m2820 -6 c0 -5 -9 -9 -20 -9 -11 0 -20 6 -20 14 0 9 7 12 20 9
11 -3 20 -9 20 -14z m-2910 2 c0 -17 -12 -41 -21 -41 -10 0 -12 33 -2 43 9 10
23 9 23 -2z m270 -7 c0 -8 -4 -12 -10 -9 -5 3 -10 10 -10 16 0 5 5 9 10 9 6 0
10 -7 10 -16z m2583 -18 c3 -8 3 -17 0 -20 -7 -7 -33 13 -33 25 0 15 27 10 33
-5z m351 -27 c-3 -5 -19 -9 -36 -9 l-31 0 24 23 c21 20 26 22 36 9 7 -8 10
-19 7 -23z m-626 -8 c3 -8 -1 -12 -9 -9 -7 2 -15 10 -17 17 -3 8 1 12 9 9 7
-2 15 -10 17 -17z m711 10 c7 -5 9 -11 5 -14 -10 -5 -54 9 -54 18 0 8 34 6 49
-4z m146 -11 c3 -5 2 -10 -4 -10 -5 0 -13 5 -16 10 -3 6 -2 10 4 10 5 0 13 -4
16 -10z m-3750 -20 c-3 -5 -13 -10 -21 -10 -8 0 -12 5 -9 10 3 6 13 10 21 10
8 0 12 -4 9 -10z m115 -15 c-7 -9 -15 -13 -18 -10 -3 2 1 11 8 20 7 9 15 13
18 10 3 -2 -1 -11 -8 -20z m3714 9 c3 -8 2 -12 -4 -9 -6 3 -10 10 -10 16 0 14
7 11 14 -7z m-3894 -4 c0 -5 -7 -10 -15 -10 -8 0 -15 5 -15 10 0 6 7 10 15 10
8 0 15 -4 15 -10z m106 -17 c-2 -16 -5 -31 -5 -35 -1 -5 -5 -8 -11 -8 -14 0
-12 38 3 55 17 20 18 19 13 -12z m3274 1 c0 -18 -26 -18 -33 0 -3 8 -3 16 0
19 9 10 33 -5 33 -19z m384 10 c23 -9 20 -34 -3 -34 -22 0 -35 15 -26 30 7 12
8 12 29 4z m-3530 -13 c6 -10 -22 -37 -29 -29 -8 7 5 38 15 38 5 0 11 -4 14
-9z m156 -6 c0 -16 -27 -32 -37 -21 -7 7 16 36 28 36 5 0 9 -7 9 -15z m3540 5
c0 -5 -2 -10 -4 -10 -3 0 -8 5 -11 10 -3 6 -1 10 4 10 6 0 11 -4 11 -10z
m-265 -20 c10 -11 16 -22 14 -25 -7 -6 -49 24 -49 36 0 15 16 10 35 -11z m-95
-10 c0 -5 -7 -10 -15 -10 -8 0 -15 5 -15 10 0 6 7 10 15 10 8 0 15 -4 15 -10z
m-3300 -14 c0 -18 -30 -30 -43 -17 -9 9 11 23 41 30 1 1 2 -5 2 -13z m2990
-17 c0 -20 -24 -26 -35 -9 -4 6 -4 17 -1 25 7 20 36 7 36 -16z m-3300 6 c0 -9
-9 -15 -22 -15 -21 0 -21 0 -2 15 24 18 24 18 24 0z m3569 -14 c-3 -6 -10 -7
-18 -2 -7 5 -10 14 -6 21 9 14 29 -2 24 -19z m-2909 9 c0 -5 -7 -10 -16 -10
-8 0 -12 5 -9 10 3 6 10 10 16 10 5 0 9 -4 9 -10z m-190 -29 c0 -10 8 -22 17
-25 13 -5 14 -9 4 -19 -10 -9 -15 -8 -26 7 -8 10 -18 15 -24 12 -13 -9 -22 9
-15 28 9 23 44 20 44 -3z m3454 13 c20 -8 21 -30 2 -37 -13 -5 -46 21 -46 36
0 9 23 9 44 1z m82 -9 c-3 -8 -1 -15 4 -15 6 0 10 -5 10 -11 0 -5 -4 -8 -9 -5
-5 4 -7 -3 -4 -14 6 -23 -15 -28 -23 -5 -8 20 4 65 17 65 6 0 9 -7 5 -15z
m-3891 -14 c-3 -5 -1 -12 5 -16 5 -3 10 2 10 11 0 13 3 15 11 7 8 -8 7 -16 -2
-31 -13 -20 -13 -20 -27 -1 -12 17 -10 39 4 39 3 0 3 -4 -1 -9z m3755 -12 c13
-24 8 -34 -15 -26 -16 7 -21 47 -5 47 5 0 14 -9 20 -21z m-3560 1 c0 -5 -7
-10 -16 -10 -8 0 -12 5 -9 10 3 6 10 10 16 10 5 0 9 -4 9 -10z m3400 -10 c0
-5 -7 -10 -15 -10 -8 0 -15 5 -15 10 0 6 7 10 15 10 8 0 15 -4 15 -10z m90
-20 c0 -5 -12 -21 -26 -35 -35 -35 -54 -18 -22 18 23 27 48 36 48 17z m-3923
-22 c-3 -8 -6 -5 -6 6 -1 11 2 17 5 13 3 -3 4 -12 1 -19z m173 12 c0 -5 -7
-10 -16 -10 -8 0 -12 5 -9 10 3 6 10 10 16 10 5 0 9 -4 9 -10z m197 -7 c-9 -9
-19 -14 -23 -11 -10 10 6 28 24 28 15 0 15 -1 -1 -17z m-148 -25 c-9 -16 -14
-19 -17 -9 -2 7 2 17 9 22 20 13 21 11 8 -13z m3871 -3 c0 -23 -18 -27 -29 -7
-6 11 -8 22 -5 25 10 9 34 -4 34 -18z m74 -55 c5 -53 10 -56 40 -36 29 18 46
21 46 6 0 -5 -7 -7 -15 -4 -8 4 -15 1 -15 -5 0 -6 5 -11 10 -11 6 0 10 -3 10
-7 0 -5 -14 -8 -31 -9 -38 -1 -55 23 -64 91 -4 37 -3 46 5 33 5 -9 12 -35 14
-58z m-4090 4 c-10 -15 -20 -22 -22 -16 -2 6 5 23 14 38 10 15 20 22 22 16 2
-6 -5 -23 -14 -38z m3916 19 c0 -20 -24 -11 -28 10 -2 12 1 15 12 11 9 -3 16
-13 16 -21z m-4010 -4 c0 -6 -4 -7 -10 -4 -5 3 -10 1 -10 -5 0 -6 -13 -24 -30
-40 -20 -19 -30 -24 -30 -15 0 8 9 20 20 27 11 7 20 18 20 23 0 16 22 35 32
29 4 -3 8 -10 8 -15z m3720 -9 c0 -5 -4 -10 -10 -10 -5 0 -10 5 -10 10 0 6 5
10 10 10 6 0 10 -4 10 -10z m-3576 -15 c-4 -8 -13 -15 -21 -15 -13 0 -13 3 -3
15 7 8 16 15 21 15 5 0 6 -7 3 -15z m3946 -44 c-1 -34 -2 -35 -15 -17 -8 11
-15 33 -15 49 0 25 2 28 15 17 8 -7 15 -28 15 -49z m-4049 22 c1 -16 1 -35 0
-43 0 -10 1 -11 5 -2 3 6 10 12 15 12 11 0 7 -23 -6 -32 -28 -21 -41 -8 -39
40 2 54 1 52 14 52 6 0 11 -12 11 -27z m159 23 c0 -3 -4 -8 -10 -11 -5 -3 -10
-1 -10 4 0 6 5 11 10 11 6 0 10 -2 10 -4z m240 -50 c0 -8 -4 -17 -9 -21 -12
-7 -24 12 -16 25 9 15 25 12 25 -4z m3870 -28 c0 -4 -8 0 -18 10 -11 9 -17 21
-14 26 5 9 32 -21 32 -36z m-4080 23 c0 -5 -7 -11 -15 -15 -15 -5 -20 5 -8 17
9 10 23 9 23 -2z m3774 -10 c3 -4 3 -11 0 -14 -8 -8 -34 3 -34 14 0 11 27 12
34 0z m-3734 -11 c0 -5 -5 -10 -11 -10 -5 0 -7 5 -4 10 3 6 8 10 11 10 2 0 4
-4 4 -10z m-310 -14 c0 -2 -8 -10 -17 -17 -16 -13 -17 -12 -4 4 13 16 21 21
21 13z m165 -28 c-11 -36 -25 -45 -25 -17 0 27 7 39 22 39 5 0 6 -10 3 -22z
m183 0 c-5 -32 -28 -35 -28 -4 0 17 5 26 16 26 10 0 14 -7 12 -22z m3742 7 c0
-8 -4 -15 -9 -15 -13 0 -22 16 -14 24 11 11 23 6 23 -9z m-390 -11 c0 -17 -22
-14 -28 4 -2 7 3 12 12 12 9 0 16 -7 16 -16z m258 -1 c-4 -22 -22 -20 -26 1
-2 10 3 16 13 16 10 0 15 -7 13 -17z m372 -18 c0 -39 -14 -47 -24 -12 -9 35
-7 47 9 47 10 0 15 -11 15 -35z m50 15 c0 -11 -2 -20 -4 -20 -2 0 -6 9 -9 20
-3 11 -1 20 4 20 5 0 9 -9 9 -20z m-4348 -97 c-9 -34 -10 -31 -9 37 0 67 1 71
10 38 6 -25 5 -51 -1 -75z m4216 98 c8 -4 12 -19 11 -32 -2 -13 3 -34 9 -47 7
-12 10 -27 7 -32 -8 -13 -26 -2 -24 13 1 7 -5 29 -14 49 -25 55 -21 70 11 49z
m-458 -16 c7 -9 11 -18 8 -20 -9 -10 -38 7 -38 21 0 18 14 18 30 -1z m420 -25
c0 -5 -4 -10 -9 -10 -6 0 -13 5 -16 10 -3 6 1 10 9 10 9 0 16 -4 16 -10z
m-4301 -55 c0 -5 -4 -3 -9 5 -8 13 -10 12 -10 -2 0 -10 -4 -18 -10 -18 -13 0
-13 16 2 43 11 21 11 21 19 2 4 -11 8 -24 8 -30z m4455 10 c-11 -17 -14 -36
-9 -67 5 -36 3 -47 -14 -62 -11 -10 -25 -15 -32 -10 -8 4 -10 3 -5 -4 4 -7 2
-12 -4 -12 -6 0 -8 -4 -5 -10 9 -14 -8 -13 -23 2 -14 14 -16 32 -2 23 5 -3 18
3 30 15 11 11 27 20 35 20 8 0 15 8 15 19 0 10 -7 24 -15 31 -22 18 -18 49 7
70 30 24 42 15 22 -15z m-4231 3 c8 -28 -4 -47 -14 -22 -11 27 -11 44 0 44 5
0 11 -10 14 -22z m3992 -3 c0 -26 -21 -30 -28 -6 -2 11 -2 22 1 26 11 10 27
-2 27 -20z m313 -21 c3 -15 1 -17 -9 -6 -21 20 -30 14 -23 -15 4 -16 3 -25 -2
-20 -14 13 -15 50 -2 59 18 11 32 4 36 -18z m-4468 1 c0 -8 -4 -15 -9 -15 -13
0 -22 16 -14 24 11 11 23 6 23 -9z m271 -18 c-8 -8 -11 -7 -11 4 0 20 13 34
18 19 3 -7 -1 -17 -7 -23z m1974 23 c-3 -5 -11 -10 -16 -10 -6 0 -7 5 -4 10 3
6 11 10 16 10 6 0 7 -4 4 -10z m58 -107 c-5 -20 -1 -23 28 -23 19 0 40 -4 47
-9 7 -4 -11 -6 -41 -3 -54 4 -54 4 -60 -28 -8 -38 7 -70 32 -70 10 0 40 11 66
25 27 13 50 23 52 22 6 -6 -82 -57 -99 -57 -23 0 -25 -42 -3 -60 16 -13 21
-55 6 -45 -5 3 -15 22 -21 43 -16 49 -22 54 -52 47 -36 -9 -65 -75 -33 -75 13
0 41 -37 33 -45 -10 -10 -58 10 -58 24 0 10 -12 2 -34 -24 -19 -22 -37 -37
-41 -33 -4 3 2 11 13 17 10 6 25 24 32 41 11 27 10 33 -5 50 -24 27 -75 27
-82 0 -7 -25 -21 -27 -19 -2 1 12 -8 18 -29 20 -16 2 -38 10 -50 18 -18 14
-15 14 34 8 40 -5 55 -4 62 7 22 35 -5 104 -32 83 -8 -6 -27 -14 -42 -18 -28
-7 -28 -7 -11 19 9 14 26 26 38 26 76 5 100 14 117 45 12 23 11 28 -6 41 -19
15 -19 15 3 8 14 -4 30 -1 40 7 15 12 16 11 4 -4 -29 -36 10 -81 61 -71 22 4
26 9 21 28 -3 13 -1 26 5 29 6 4 12 22 12 39 1 27 3 25 9 -13 5 -25 6 -55 3
-67z m1947 97 c0 -5 -2 -10 -4 -10 -3 0 -8 5 -11 10 -3 6 -1 10 4 10 6 0 11
-4 11 -10z m-200 -30 c0 -5 -4 -10 -10 -10 -5 0 -10 5 -10 10 0 6 5 10 10 10
6 0 10 -4 10 -10z m-3640 -14 c0 -16 -18 -31 -27 -22 -8 8 5 36 17 36 5 0 10
-6 10 -14z m4060 4 c0 -5 -5 -10 -11 -10 -5 0 -7 5 -4 10 3 6 8 10 11 10 2 0
4 -4 4 -10z m-4416 -39 c-4 -3 -9 -1 -11 6 -2 7 -11 9 -19 6 -8 -3 -14 -1 -14
4 0 20 14 22 32 6 10 -9 15 -19 12 -22z m-124 19 c0 -5 -7 -10 -15 -10 -8 0
-15 5 -15 10 0 6 7 10 15 10 8 0 15 -4 15 -10z m4040 -16 c0 -8 -4 -14 -10
-14 -5 0 -10 9 -10 21 0 11 5 17 10 14 6 -3 10 -13 10 -21z m267 11 c8 -22 -6
-33 -17 -15 -13 20 -12 30 0 30 6 0 13 -7 17 -15z m-2182 -40 c6 -29 6 -29 -9
-11 -9 11 -16 29 -16 40 0 28 17 8 25 -29z m-2162 20 c4 -8 3 -16 -1 -19 -4
-3 -9 4 -9 15 -2 23 3 25 10 4z m4217 0 c0 -8 -4 -15 -10 -15 -5 0 -10 7 -10
15 0 8 5 15 10 15 6 0 10 -7 10 -15z m-3950 -15 c0 -5 -4 -10 -10 -10 -5 0
-10 5 -10 10 0 6 5 10 10 10 6 0 10 -4 10 -10z m4310 0 c0 -5 -4 -10 -10 -10
-5 0 -10 5 -10 10 0 6 5 10 10 10 6 0 10 -4 10 -10z m-4530 -10 c0 -5 -5 -10
-11 -10 -5 0 -7 5 -4 10 3 6 8 10 11 10 2 0 4 -4 4 -10z m-89 -23 c-10 -9 -11
-8 -5 6 3 10 9 15 12 12 3 -3 0 -11 -7 -18z m164 -28 c-1 -28 -8 -56 -14 -62
-8 -8 -11 -7 -11 4 0 12 -2 12 -10 -1 -5 -8 -10 -10 -10 -4 0 6 7 17 15 24 9
7 15 29 15 51 0 22 4 39 9 39 5 0 8 -23 6 -51z m4502 6 c-1 -36 -17 -51 -17
-16 0 19 9 51 15 51 2 0 3 -16 2 -35z m-307 -1 c0 -8 -4 -12 -10 -9 -5 3 -10
10 -10 16 0 5 5 9 10 9 6 0 10 -7 10 -16z m-242 -18 c3 -12 -1 -17 -10 -14 -7
3 -15 13 -16 22 -3 12 1 17 10 14 7 -3 15 -13 16 -22z m459 -6 c0 -30 -12 -41
-20 -17 -5 15 3 47 12 47 4 0 8 -13 8 -30z m-107 -11 c0 -11 -4 -17 -10 -14
-5 3 -10 13 -10 21 0 8 5 14 10 14 6 0 10 -9 10 -21z m-4030 1 c0 -5 -4 -10
-10 -10 -5 0 -10 5 -10 10 0 6 5 10 10 10 6 0 10 -4 10 -10z m-175 -10 c-3 -5
-10 -10 -16 -10 -5 0 -9 5 -9 10 0 6 7 10 16 10 8 0 12 -4 9 -10z m135 0 c0
-5 -4 -10 -10 -10 -5 0 -10 5 -10 10 0 6 5 10 10 10 6 0 10 -4 10 -10z m3848
-33 c3 -16 1 -17 -17 -7 -25 13 -28 33 -4 28 10 -2 19 -11 21 -21z m-4253 -16
c-3 -12 -11 -19 -16 -16 -5 4 -5 14 2 26 13 26 23 18 14 -10z m80 9 c-3 -5
-10 -10 -16 -10 -5 0 -9 5 -9 10 0 6 7 10 16 10 8 0 12 -4 9 -10z m150 0 c3
-5 1 -10 -4 -10 -6 0 -11 5 -11 10 0 6 2 10 4 10 3 0 8 -4 11 -10z m4225 -11
c0 -5 -4 -9 -10 -9 -5 0 -10 7 -10 16 0 8 5 12 10 9 6 -3 10 -10 10 -16z m190
-12 c0 -7 -4 -6 -10 3 -8 13 -10 12 -10 -2 0 -10 5 -18 10 -18 6 0 10 -4 10
-10 0 -5 -7 -10 -15 -10 -15 0 -21 40 -9 53 9 9 24 -1 24 -16z m-232 -20 c2
-15 -1 -27 -7 -27 -6 0 -11 3 -11 8 0 4 -3 18 -7 31 -4 18 -2 23 8 19 8 -2 15
-17 17 -31z m132 17 c0 -8 -4 -12 -10 -9 -5 3 -10 10 -10 16 0 5 5 9 10 9 6 0
10 -7 10 -16z m160 -15 c0 -5 -7 -9 -15 -9 -8 0 -15 -5 -15 -11 0 -6 8 -8 19
-4 11 3 22 1 26 -5 8 -13 6 -16 -22 -24 -26 -8 -40 23 -23 54 10 20 30 19 30
-1z m-4440 -4 c10 -12 10 -15 -4 -15 -9 0 -16 7 -16 15 0 8 2 15 4 15 2 0 9
-7 16 -15z m4097 -11 c-9 -9 -28 6 -21 18 4 6 10 6 17 -1 6 -6 8 -13 4 -17z
m-4407 6 c0 -5 -5 -10 -11 -10 -5 0 -7 5 -4 10 3 6 8 10 11 10 2 0 4 -4 4 -10z
m170 -4 c0 -3 -4 -8 -10 -11 -5 -3 -10 -1 -10 4 0 6 5 11 10 11 6 0 10 -2 10
-4z m4430 -51 c0 -7 7 -21 16 -30 9 -9 13 -19 10 -22 -10 -10 -34 19 -42 51
-5 21 -4 27 5 22 6 -4 11 -13 11 -21z m50 15 c0 -5 -4 -10 -10 -10 -5 0 -10 5
-10 10 0 6 5 10 10 10 6 0 10 -4 10 -10z m-4520 -20 c0 -11 -4 -20 -10 -20 -5
0 -10 7 -10 16 0 12 -7 15 -25 12 -13 -3 -22 -1 -19 3 3 5 18 9 35 9 22 0 29
-5 29 -20z m410 0 c0 -11 -4 -20 -10 -20 -5 0 -10 9 -10 20 0 11 5 20 10 20 6
0 10 -9 10 -20z m1727 -27 c-3 -10 -5 -2 -5 17 0 19 2 27 5 18 2 -10 2 -26 0
-35z m-2229 23 c-7 -8 -15 -12 -17 -11 -5 6 10 25 20 25 5 0 4 -6 -3 -14z
m182 5 c0 -6 -4 -13 -10 -16 -5 -3 -10 1 -10 9 0 9 5 16 10 16 6 0 10 -4 10
-9z m2315 -40 c-3 -6 -18 -10 -33 -10 -21 1 -22 2 -7 6 11 3 24 9 29 14 12 11
20 4 11 -10z m-2568 -23 c-3 -7 -5 -2 -5 12 0 14 2 19 5 13 2 -7 2 -19 0 -25z
m4563 22 c0 -5 -4 -10 -10 -10 -5 0 -10 5 -10 10 0 6 5 10 10 10 6 0 10 -4 10
-10z m199 -35 c0 -5 -4 -3 -9 5 -5 8 -9 22 -9 30 0 16 17 -16 18 -35z m27 11
c1 -7 5 -23 8 -34 6 -17 3 -19 -14 -15 -20 5 -28 23 -10 23 6 0 6 9 0 26 -6
14 -10 28 -10 32 0 11 24 -18 26 -32z m-348 12 c-5 -15 -68 -24 -68 -9 0 10
21 18 53 20 11 1 17 -4 15 -11z m104 -51 c8 -15 6 -18 -8 -15 -21 4 -46 47
-37 61 6 10 24 -10 45 -46z m-4002 33 c0 -5 -4 -10 -10 -10 -5 0 -10 5 -10 10
0 6 5 10 10 10 6 0 10 -4 10 -10z m1797 4 c-3 -3 -12 -4 -19 -1 -8 3 -5 6 6 6
11 1 17 -2 13 -5z m1950 -16 c-3 -8 -6 -5 -6 6 -1 11 2 17 5 13 3 -3 4 -12 1
-19z m-4107 -29 c0 -12 -7 -19 -20 -19 -10 0 -23 -6 -27 -14 -7 -12 -10 -11
-23 2 -13 14 -12 15 3 9 11 -4 20 -1 24 9 3 8 12 13 19 10 8 -3 14 -1 14 4 0
6 -5 10 -11 10 -5 0 -7 5 -4 10 9 15 25 2 25 -21z m4547 -4 c-4 -8 4 -22 19
-34 20 -16 26 -31 29 -76 5 -69 -10 -64 -18 6 -4 32 -14 61 -27 74 -22 23 -26
45 -9 45 6 0 9 -7 6 -15z m-37 -10 c0 -8 -4 -15 -9 -15 -13 0 -22 16 -14 24
11 11 23 6 23 -9z m151 -18 l-24 -22 19 27 c10 14 21 24 23 22 3 -3 -6 -15
-18 -27z m-4601 13 c0 -5 -8 -10 -17 -10 -15 0 -16 2 -3 10 19 12 20 12 20 0z
m4350 -25 c0 -8 -4 -15 -10 -15 -5 0 -10 7 -10 15 0 8 5 15 10 15 6 0 10 -7
10 -15z m-280 -11 c0 -17 -22 -14 -28 4 -2 7 3 12 12 12 9 0 16 -7 16 -16z
m-4324 -41 c-11 -11 -24 9 -18 29 l5 22 9 -24 c5 -12 6 -25 4 -27z m534 31 c0
-17 -22 -14 -28 4 -2 7 3 12 12 12 9 0 16 -7 16 -16z m4348 5 c-2 -6 -8 -10
-13 -10 -5 0 -11 4 -13 10 -2 6 4 11 13 11 9 0 15 -5 13 -11z m-4771 -51 c-3
-7 -5 -2 -5 12 0 14 2 19 5 13 2 -7 2 -19 0 -25z m4607 23 c7 -11 -71 -44 -85
-36 -19 12 -8 24 20 20 19 -2 31 2 35 11 6 16 22 19 30 5z m-4344 -11 c0 -5
-5 -10 -11 -10 -5 0 -7 5 -4 10 3 6 8 10 11 10 2 0 4 -4 4 -10z m4115 -19 c3
-5 1 -12 -5 -16 -5 -3 -10 1 -10 9 0 18 6 21 15 7z m-4538 -43 c-3 -7 -5 -2
-5 12 0 14 2 19 5 13 2 -7 2 -19 0 -25z m170 -5 c-3 -10 -5 -4 -5 12 0 17 2
24 5 18 2 -7 2 -21 0 -30z m4733 27 c0 -5 -5 -10 -11 -10 -5 0 -7 5 -4 10 3 6
8 10 11 10 2 0 4 -4 4 -10z m-370 -29 c0 -6 -4 -13 -10 -16 -5 -3 -10 1 -10 9
0 9 5 16 10 16 6 0 10 -4 10 -9z m-4230 -5 c0 -3 -4 -8 -10 -11 -5 -3 -10 -1
-10 4 0 6 5 11 10 11 6 0 10 -2 10 -4z m-113 -28 c-3 -8 -6 -5 -6 6 -1 11 2
17 5 13 3 -3 4 -12 1 -19z m263 -3 c0 -8 -4 -15 -10 -15 -5 0 -10 7 -10 15 0
8 5 15 10 15 6 0 10 -7 10 -15z m-200 -5 c0 -5 -4 -10 -10 -10 -5 0 -10 5 -10
10 0 6 5 10 10 10 6 0 10 -4 10 -10z m4648 -42 c0 -50 -1 -51 -12 -23 -9 21
-9 36 -2 52 6 13 12 23 12 23 1 0 2 -23 2 -52z m-278 32 c0 -5 -4 -10 -10 -10
-5 0 -10 5 -10 10 0 6 5 10 10 10 6 0 10 -4 10 -10z m177 -17 c-15 -16 -17
-16 -17 -1 0 9 6 18 13 21 20 7 22 -2 4 -20z m-127 2 c0 -8 -9 -15 -20 -15
-25 0 -26 17 -2 23 9 3 18 5 20 6 1 0 2 -6 2 -14z m90 -6 c0 -23 -30 -23 -38
0 -3 8 0 11 7 7 6 -4 11 -2 11 3 0 6 5 11 10 11 6 0 10 -9 10 -21z m200 -14
c0 -30 -2 -34 -14 -23 -10 10 -11 19 -3 35 14 31 17 29 17 -12z m-4640 -14 c0
-22 -16 -36 -24 -22 -8 12 3 41 15 41 5 0 9 -9 9 -19z m-230 -1 c0 -5 -2 -10
-4 -10 -3 0 -8 5 -11 10 -3 6 -1 10 4 10 6 0 11 -4 11 -10z m4415 -20 c3 -5 1
-10 -4 -10 -6 0 -11 5 -11 10 0 6 2 10 4 10 3 0 8 -4 11 -10z m365 -22 c0 -5
-4 -8 -10 -8 -5 0 -10 10 -10 23 0 18 2 19 10 7 5 -8 10 -18 10 -22z m-410 18
c0 -2 -7 -9 -15 -16 -12 -10 -15 -10 -15 4 0 9 7 16 15 16 8 0 15 -2 15 -4z
m-2975 -33 c46 -19 121 -93 140 -141 44 -103 23 -244 -47 -321 -48 -53 -120
-92 -163 -89 -28 3 -30 6 -33 50 -3 47 -3 47 36 58 77 20 133 125 117 219 -8
47 -65 113 -117 134 -36 15 -38 18 -38 61 0 61 16 65 105 29z m393 -4 c17 -16
32 -34 32 -38 0 -5 29 -46 65 -92 36 -46 65 -89 65 -96 0 -7 9 -17 20 -23 11
-6 30 -30 42 -53 l23 -42 5 178 c6 200 5 199 80 195 l45 -3 0 -285 0 -285 -60
0 c-57 0 -60 2 -83 35 -13 19 -33 46 -45 60 -12 14 -34 44 -49 68 -15 23 -46
66 -69 94 -23 29 -45 63 -50 75 -5 13 -13 23 -18 23 -5 0 -27 28 -50 63 -23
34 -52 77 -66 96 -31 43 -20 61 39 61 32 0 48 -7 74 -31z m900 1 c28 -12 52
-26 52 -29 0 -4 17 -25 38 -47 46 -46 67 -112 65 -199 -2 -77 -22 -132 -67
-181 -20 -21 -36 -42 -36 -45 0 -15 -110 -52 -166 -57 -91 -7 -160 17 -224 78
-83 79 -108 188 -74 312 22 78 93 153 167 180 69 25 172 20 245 -12z m615 1
c89 -43 152 -153 151 -266 0 -119 -90 -243 -196 -272 -45 -12 -275 -17 -302
-7 -14 5 -16 40 -16 284 0 213 3 280 13 284 6 3 77 4 157 3 129 -2 150 -5 193
-26z m665 14 c6 -3 12 -20 12 -40 0 -20 -6 -38 -12 -40 -7 -2 -78 -6 -158 -7
l-145 -4 -3 -61 -3 -61 135 -4 c74 -1 137 -6 141 -9 12 -13 15 -60 5 -79 -9
-18 -23 -20 -143 -22 l-132 -3 -3 -61 -3 -61 83 -6 c46 -4 108 -7 138 -8 30
-1 46 -4 35 -7 l-20 -5 20 -8 c20 -7 20 -8 -1 -8 -11 -1 -29 -8 -40 -16 -18
-14 -17 -14 14 -15 17 0 32 -4 32 -10 0 -5 11 -10 24 -10 21 0 25 6 29 35 l4
35 -1 -37 -1 -38 -205 0 -205 0 -3 269 c-1 157 2 273 7 280 7 8 66 10 198 8
103 -2 194 -5 201 -7z m277 5 c3 -5 -1 -10 -9 -10 -9 0 -16 5 -16 10 0 6 4 10
9 10 6 0 13 -4 16 -10z m-4120 -10 c-3 -5 -10 -10 -16 -10 -5 0 -9 5 -9 10 0
6 7 10 16 10 8 0 12 -4 9 -10z m741 -15 c2 -18 1 -18 -9 -4 -7 9 -21 19 -32
22 -13 4 -9 5 9 4 21 -1 30 -8 32 -22z m372 -22 c3 -41 3 -41 -51 -66 -63 -29
-97 -75 -105 -143 -10 -93 32 -169 114 -205 42 -17 44 -20 44 -59 0 -51 -16
-58 -84 -37 -64 21 -130 86 -157 157 -24 64 -25 169 -1 231 34 91 136 172 207
167 28 -3 30 -6 33 -45z m-1185 22 c8 -18 -11 -31 -25 -17 -11 11 -3 32 12 32
4 0 10 -7 13 -15z m4647 -25 c0 -29 -17 -33 -22 -5 -3 13 -3 27 0 29 9 10 22
-5 22 -24z m144 3 c-7 -25 -6 -27 9 -14 10 7 17 9 17 3 0 -12 -29 -24 -41 -16
-10 6 -12 38 -2 47 15 15 23 5 17 -20z m-4067 -55 c-2 -13 -4 -3 -4 22 0 25 2
35 4 23 2 -13 2 -33 0 -45z m3843 32 c16 -30 2 -45 -21 -24 -14 13 -16 20 -8
31 15 17 16 17 29 -7z m182 -12 c5 -28 4 -29 -9 -13 -15 21 -17 45 -4 45 5 0
11 -14 13 -32z m-4658 -62 c-4 -18 -12 -26 -23 -24 -25 5 -24 33 1 45 29 13
31 12 22 -21z m-85 7 c0 -11 -3 -13 -6 -5 -2 6 -9 10 -13 7 -5 -3 -11 -1 -15
5 -3 5 3 10 14 10 14 0 21 -6 20 -17z m201 0 c0 -10 3 -29 6 -43 4 -18 3 -21
-4 -10 -15 25 -23 70 -12 70 5 0 10 -8 10 -17z m606 -29 c-3 -8 -11 -14 -18
-14 -9 0 -9 3 0 12 7 7 13 21 13 33 1 17 2 18 6 2 3 -10 2 -25 -1 -33z m3894
26 c0 -11 -4 -20 -9 -20 -11 0 -22 26 -14 34 12 12 23 5 23 -14z m57 -2 c-3
-8 -6 -5 -6 6 -1 11 2 17 5 13 3 -3 4 -12 1 -19z m-4840 -10 c-3 -8 -6 -5 -6
6 -1 11 2 17 5 13 3 -3 4 -12 1 -19z m370 2 c-1 -11 -5 -20 -9 -20 -4 0 -8 9
-8 20 0 11 4 20 9 20 6 0 9 -9 8 -20z m4123 5 c0 -8 -7 -15 -15 -15 -16 0 -20
12 -8 23 11 12 23 8 23 -8z m240 -35 c0 -5 -4 -10 -10 -10 -5 0 -7 -6 -4 -14
3 -8 1 -17 -5 -21 -12 -7 -16 37 -4 48 10 10 23 8 23 -3z m130 1 c0 -6 -5 -13
-11 -17 -8 -4 -8 -9 0 -17 14 -14 14 -27 1 -27 -5 0 -10 7 -10 15 0 18 -12 19
-27 4 -9 -9 -12 -7 -10 8 1 14 6 19 19 15 12 -3 18 1 18 12 0 9 5 16 10 16 6
0 10 -4 10 -9z m-260 -11 c0 -5 -7 -10 -15 -10 -8 0 -15 5 -15 10 0 6 7 10 15
10 8 0 15 -4 15 -10z m-4513 -77 c-2 -16 -4 -5 -4 22 0 28 2 40 4 28 2 -13 2
-35 0 -50z m4423 47 c0 -11 -4 -20 -10 -20 -5 0 -10 9 -10 20 0 11 5 20 10 20
6 0 10 -9 10 -20z m375 10 c3 -6 -1 -7 -9 -4 -18 7 -21 14 -7 14 6 0 13 -4 16
-10z m-4868 -22 c-3 -8 -6 -5 -6 6 -1 11 2 17 5 13 3 -3 4 -12 1 -19z m863
-13 c0 -8 -4 -15 -10 -15 -5 0 -10 4 -10 9 0 6 -12 6 -32 0 -35 -10 -51 -3
-28 11 25 16 80 12 80 -5z m-623 -17 c-3 -8 -6 -5 -6 6 -1 11 2 17 5 13 3 -3
4 -12 1 -19z m4130 -4 c-9 -9 -28 6 -21 18 4 6 10 6 17 -1 6 -6 8 -13 4 -17z
m297 14 c13 -41 15 -68 6 -68 -5 0 -10 11 -10 24 0 14 -4 28 -10 31 -5 3 -10
10 -10 16 0 14 20 11 24 -3z m-3887 -151 c-2 -23 -3 -1 -3 48 0 50 1 68 3 42
2 -26 2 -67 0 -90z m3988 123 c-3 -5 -1 -10 4 -10 6 0 11 -4 11 -8 0 -5 -7 -9
-15 -9 -8 0 -15 9 -15 19 0 10 5 18 11 18 5 0 7 -4 4 -10z m109 -17 c5 -11 -2
-25 -19 -40 -24 -23 -29 -34 -26 -60 1 -7 -5 -13 -14 -13 -18 0 -19 -4 3 55
27 78 43 94 56 58z m-4017 -105 c-2 -24 -4 -7 -4 37 0 44 2 63 4 43 2 -21 2
-57 0 -80z m-927 92 c0 -5 -4 -10 -10 -10 -5 0 -10 5 -10 10 0 6 5 10 10 10 6
0 10 -4 10 -10z m4602 -32 c-9 -9 -12 -7 -12 12 0 19 3 21 12 12 9 -9 9 -15 0
-24z m-4410 12 c0 -5 1 -16 2 -22 1 -7 5 -16 11 -20 5 -4 6 -10 2 -14 -11 -11
-30 12 -33 41 -2 23 14 38 18 15z m4468 0 c0 -5 -4 -10 -10 -10 -5 0 -10 5
-10 10 0 6 5 10 10 10 6 0 10 -4 10 -10z m195 0 c3 -5 -1 -10 -9 -10 -9 0 -16
5 -16 10 0 6 4 10 9 10 6 0 13 -4 16 -10z m-4858 -22 c-3 -8 -6 -5 -6 6 -1 11
2 17 5 13 3 -3 4 -12 1 -19z m4790 -21 c3 -20 2 -21 -13 -5 -9 9 -13 21 -9 28
9 15 18 6 22 -23z m-4676 0 c-13 -13 -26 -3 -16 12 3 6 11 8 17 5 6 -4 6 -10
-1 -17z m299 3 c0 -5 -4 -10 -10 -10 -5 0 -10 5 -10 10 0 6 5 10 10 10 6 0 10
-4 10 -10z m1419 -14 c8 -9 11 -45 9 -98 l-3 -83 -49 -3 c-32 -2 -52 1 -57 10
-12 19 -11 146 1 169 13 23 81 27 99 5z m2867 -23 c-10 -10 -19 5 -10 18 6 11
8 11 12 0 2 -7 1 -15 -2 -18z m-4616 3 c0 -3 -4 -8 -10 -11 -5 -3 -10 -1 -10
4 0 6 5 11 10 11 6 0 10 -2 10 -4z m290 -26 c0 -5 -4 -10 -10 -10 -5 0 -10 5
-10 10 0 6 5 10 10 10 6 0 10 -4 10 -10z m4500 -1 c0 -5 5 -7 10 -4 6 3 10 1
10 -5 0 -15 -32 -9 -38 8 -2 6 1 12 7 12 6 0 11 -5 11 -11z m-4798 -26 c-3
-16 -7 -22 -10 -15 -4 13 4 42 11 42 2 0 2 -12 -1 -27z m4879 4 c-10 -9 -11
-8 -5 6 3 10 9 15 12 12 3 -3 0 -11 -7 -18z m-4436 3 c-3 -5 -10 -10 -16 -10
-5 0 -9 5 -9 10 0 6 7 10 16 10 8 0 12 -4 9 -10z m3985 0 c0 -5 -5 -10 -11
-10 -5 0 -7 5 -4 10 3 6 8 10 11 10 2 0 4 -4 4 -10z m420 -9 c-5 -11 -10 -30
-9 -43 1 -23 1 -23 9 2 l8 25 1 -25 c1 -15 -7 -32 -20 -40 -11 -8 -32 -39 -46
-67 -15 -29 -30 -53 -35 -53 -14 0 1 42 23 66 11 11 19 25 19 30 0 6 5 15 11
21 7 7 13 28 15 49 2 21 9 41 16 46 19 11 20 10 8 -11z m-220 5 c0 -3 -4 -8
-10 -11 -5 -3 -10 -1 -10 4 0 6 5 11 10 11 6 0 10 -2 10 -4z m-3761 -78 c1
-24 -3 -28 -26 -27 -17 1 -21 3 -10 6 13 3 17 16 18 51 1 39 2 42 9 22 4 -14
8 -37 9 -52z m3821 49 c0 -13 -7 -32 -15 -43 -14 -18 -15 -17 -9 11 12 60 24
76 24 32z m70 13 c0 -5 -7 -10 -15 -10 -8 0 -15 5 -15 10 0 6 7 10 15 10 8 0
15 -4 15 -10z m-4825 -10 c3 -5 1 -10 -4 -10 -6 0 -11 5 -11 10 0 6 2 10 4 10
3 0 8 -4 11 -10z m4952 -42 c-3 -7 -5 -2 -5 12 0 14 2 19 5 13 2 -7 2 -19 0
-25z m-4787 6 c0 -8 -4 -12 -10 -9 -5 3 -10 10 -10 16 0 5 5 9 10 9 6 0 10 -7
10 -16z m4490 2 c0 -8 -4 -18 -10 -21 -5 -3 -10 3 -10 14 0 12 5 21 10 21 6 0
10 -6 10 -14z m-4640 -18 c0 -19 -2 -20 -10 -8 -13 19 -13 30 0 30 6 0 10 -10
10 -22z m250 -4 c0 -8 -4 -12 -10 -9 -5 3 -10 13 -10 21 0 8 5 12 10 9 6 -3
10 -13 10 -21z m120 -14 c0 -11 -7 -20 -15 -20 -18 0 -19 12 -3 28 16 16 18
15 18 -8z m4400 0 c0 -5 -4 -10 -10 -10 -5 0 -10 5 -10 10 0 6 5 10 10 10 6 0
10 -4 10 -10z m157 -32 c-3 -7 -5 -2 -5 12 0 14 2 19 5 13 2 -7 2 -19 0 -25z
m-397 12 c0 -5 -5 -10 -11 -10 -5 0 -7 5 -4 10 3 6 8 10 11 10 2 0 4 -4 4 -10z
m-4480 -47 c-11 -17 -11 -17 -6 0 3 10 6 24 7 30 0 9 2 9 5 0 3 -7 0 -20 -6
-30z m160 1 c0 -8 -4 -12 -10 -9 -5 3 -10 13 -10 21 0 8 5 12 10 9 6 -3 10
-13 10 -21z m4540 5 c0 -6 -5 -7 -12 -3 -8 5 -9 2 -5 -10 4 -10 0 -27 -8 -39
-14 -21 -15 -20 -15 20 0 24 5 43 13 46 15 5 27 -1 27 -14z m-4664 -71 c-5
-58 -8 -64 -15 -28 -7 37 -4 60 9 60 5 0 7 -15 6 -32z m4394 -10 c0 -4 -10 -3
-22 4 -13 7 -25 14 -27 15 -1 1 0 7 4 13 7 12 45 -15 45 -32z m160 25 c0 -5
-9 -19 -20 -33 -11 -14 -20 -31 -20 -37 0 -7 -5 -13 -11 -13 -12 0 -3 35 19
68 14 21 32 30 32 15z m-4649 -96 c-13 -13 -15 14 -3 64 l7 34 3 -44 c2 -24
-2 -49 -7 -54z m4862 68 c-3 -8 -1 -15 5 -15 6 0 13 6 15 13 4 7 6 6 6 -4 1
-17 -22 -32 -33 -22 -10 10 -7 55 4 48 5 -3 7 -12 3 -20z m-4693 -6 c0 -5 -4
-9 -10 -9 -5 0 -10 7 -10 16 0 8 5 12 10 9 6 -3 10 -10 10 -16z m4376 0 c10
-17 -13 -36 -27 -22 -12 12 -4 33 11 33 5 0 12 -5 16 -11z m234 -29 c0 -5 -7
-10 -15 -10 -8 0 -15 5 -15 10 0 6 7 10 15 10 8 0 15 -4 15 -10z m-4400 -15
c0 -8 -4 -15 -10 -15 -5 0 -10 7 -10 15 0 8 5 15 10 15 6 0 10 -7 10 -15z
m4430 5 c0 -5 7 -10 15 -10 8 0 15 -7 15 -16 0 -8 5 -12 10 -9 6 4 7 12 4 18
-5 9 -4 9 6 0 10 -9 9 -16 -4 -34 -12 -18 -16 -20 -16 -7 0 9 -11 25 -25 36
-26 21 -32 32 -15 32 6 0 10 -4 10 -10z m-4692 -35 c-3 -3 -9 2 -12 12 -6 14
-5 15 5 6 7 -7 10 -15 7 -18z m312 9 c0 -8 -5 -12 -10 -9 -6 4 -8 11 -5 16 9
14 15 11 15 -7z m1231 -6 c11 -13 48 -61 82 -108 34 -47 72 -99 85 -115 12
-17 38 -55 58 -85 30 -45 38 -52 43 -37 4 10 8 93 9 185 1 91 6 170 11 175 4
4 30 7 57 5 l49 -3 3 -284 c2 -201 -1 -288 -9 -297 -7 -8 -30 -14 -56 -14 -37
0 -49 5 -74 32 -16 18 -29 36 -29 40 0 4 -15 25 -34 45 -18 21 -39 49 -46 62
-7 13 -41 62 -76 109 -35 46 -64 88 -64 93 0 5 -6 9 -12 9 -10 0 -12 -40 -10
-174 2 -114 -1 -182 -8 -195 -12 -23 -58 -28 -91 -11 -18 10 -19 24 -19 295 0
217 3 285 13 288 6 3 31 6 55 6 32 1 48 -4 63 -21z m639 12 c12 -7 15 -50 17
-237 l4 -228 122 -2 c167 -4 167 -4 167 -57 0 -25 -6 -48 -14 -55 -9 -8 -73
-11 -207 -9 l-193 3 -7 25 c-12 41 -10 529 1 551 8 14 21 19 53 19 23 0 49 -4
57 -10z m495 -290 l0 -295 -29 -3 c-15 -2 -39 -1 -52 2 l-24 6 0 289 c0 158 3
291 7 295 4 4 28 6 53 4 l45 -3 0 -295z m296 248 c17 -29 37 -57 44 -63 6 -5
29 -37 51 -69 21 -33 47 -68 56 -78 10 -9 29 -37 44 -60 57 -90 58 -87 64 125
l5 192 50 0 50 0 3 -284 c1 -186 -1 -288 -8 -295 -6 -6 -28 -12 -49 -13 -44
-3 -78 21 -120 85 -14 22 -65 91 -112 153 -47 63 -91 123 -97 134 -9 16 -11
-22 -12 -167 0 -175 -1 -188 -19 -198 -25 -13 -67 -13 -92 0 -18 10 -19 24
-19 295 0 217 3 285 13 288 6 3 35 6 64 6 l51 1 33 -52z m857 37 c6 -3 12 -20
12 -38 0 -32 2 -34 34 -35 32 -1 35 1 39 31 l4 32 1 -33 c1 -20 -3 -35 -12
-38 -8 -3 -81 -9 -163 -12 l-148 -7 0 -65 0 -65 142 -3 c143 -3 143 -3 149
-27 3 -14 3 -36 0 -50 -5 -21 -13 -25 -44 -27 -88 -3 -111 -4 -180 -6 l-73 -2
3 -62 3 -63 100 -2 c118 -3 165 -10 165 -24 0 -5 -6 -9 -12 -8 -25 3 -39 -1
-33 -10 3 -5 0 -13 -6 -17 -18 -11 47 -37 75 -30 20 5 26 14 29 44 4 32 4 30
3 -8 l-1 -45 -215 0 -215 0 -3 284 c-1 167 2 287 7 290 10 7 318 2 339 -4z
m761 -11 c-14 -18 -24 -11 -15 11 3 9 11 13 16 10 8 -5 7 -11 -1 -21z m-4519
0 c0 -14 -3 -14 -15 -4 -8 7 -15 14 -15 16 0 2 7 4 15 4 8 0 15 -7 15 -16z
m110 -49 c-1 -5 -12 3 -25 18 -14 15 -25 33 -25 40 1 7 12 -1 25 -18 14 -16
25 -34 25 -40z m790 21 c0 -41 -3 -46 -43 -69 -23 -14 -55 -37 -70 -52 -32
-33 -35 -25 -6 22 12 18 18 40 15 48 -3 9 0 15 9 15 8 0 15 5 15 10 0 14 -12
12 -37 -5 -12 -8 -30 -12 -40 -9 -15 5 -15 4 -3 -5 8 -5 11 -13 7 -18 -5 -4
-12 -1 -16 6 -7 10 -13 4 -26 -23 -21 -44 -39 -58 -25 -19 23 60 134 140 198
142 20 1 22 -4 22 -43z m165 30 c48 -21 120 -90 145 -140 27 -57 36 -159 20
-225 -18 -76 -86 -155 -164 -192 -73 -35 -84 -36 -95 -7 -19 51 7 108 49 108
26 0 63 40 89 93 35 72 27 141 -24 203 -21 25 -54 53 -74 61 -44 19 -51 29
-46 68 2 17 4 33 4 38 1 12 59 8 96 -7z m2745 4 c0 -5 -4 -10 -10 -10 -5 0
-10 5 -10 10 0 6 5 10 10 10 6 0 10 -4 10 -10z m-3840 -46 c0 -14 -4 -23 -9
-20 -5 3 -7 15 -4 26 7 28 13 25 13 -6z m4597 -34 c0 -16 -4 -30 -9 -30 -10 0
-11 44 -1 53 9 10 10 10 10 -23z m-127 10 c0 -5 -4 -10 -10 -10 -5 0 -10 5
-10 10 0 6 5 10 10 10 6 0 10 -4 10 -10z m80 -5 c0 -8 -4 -15 -10 -15 -5 0
-10 7 -10 15 0 8 5 15 10 15 6 0 10 -7 10 -15z m145 5 c3 -5 1 -10 -4 -10 -6
0 -11 5 -11 10 0 6 2 10 4 10 3 0 8 -4 11 -10z m-439 -16 c-3 -9 -6 -21 -6
-27 0 -8 -3 -8 -10 -1 -12 12 -3 44 12 44 6 0 7 -7 4 -16z m-3436 -9 c0 -8 -4
-15 -10 -15 -5 0 -10 7 -10 15 0 8 5 15 10 15 6 0 10 -7 10 -15z m3664 -29
c-8 -35 -43 -37 -37 -2 3 14 13 27 22 29 22 5 23 3 15 -27z m-4434 -27 c0 -5
-7 -9 -15 -9 -15 0 -20 12 -9 23 8 8 24 -1 24 -14z m4600 -4 c11 -13 8 -15
-14 -15 -16 0 -26 5 -26 15 0 8 6 15 14 15 7 0 19 -7 26 -15z m58 3 c-3 -7
-13 -15 -23 -16 -15 -4 -16 -2 -4 12 17 19 32 21 27 4z m-558 -22 c0 -8 -4
-17 -9 -21 -12 -7 -24 12 -16 25 9 15 25 12 25 -4z m220 -1 c0 -8 -4 -15 -10
-15 -5 0 -10 7 -10 15 0 8 5 15 10 15 6 0 10 -7 10 -15z m-4392 -31 c-4 -3
-12 5 -18 18 -12 22 -12 22 6 6 10 -10 15 -20 12 -24z m402 26 c0 -5 -4 -10
-10 -10 -5 0 -10 5 -10 10 0 6 5 10 10 10 6 0 10 -4 10 -10z m-223 -37 c-3
-10 -5 -4 -5 12 0 17 2 24 5 18 2 -7 2 -21 0 -30z m4408 17 c8 -25 -1 -40 -25
-40 -24 0 -34 -16 -17 -27 26 -15 30 -51 7 -63 -11 -6 -20 -15 -20 -21 0 -6
-7 -18 -16 -26 -10 -11 -13 -24 -9 -42 6 -25 6 -25 -14 -7 -21 19 -28 46 -12
46 14 0 71 62 71 78 0 8 -9 16 -20 19 -24 6 -25 13 -5 39 8 10 15 27 15 36 0
15 12 25 32 27 4 1 9 -8 13 -19z m-4445 -10 c0 -11 0 -22 0 -25 0 -16 -16 -1
-22 20 -4 18 -2 25 8 25 8 0 14 -9 14 -20z m660 -35 c0 -14 -4 -25 -9 -25 -4
0 -6 11 -3 25 2 14 6 25 8 25 2 0 4 -11 4 -25z m-755 5 c3 -5 -1 -10 -9 -10
-9 0 -16 5 -16 10 0 6 4 10 9 10 6 0 13 -4 16 -10z m652 -72 c-2 -18 -4 -6 -4
27 0 33 2 48 4 33 2 -15 2 -42 0 -60z m3773 75 c0 -14 -19 -38 -25 -32 -8 8 5
39 16 39 5 0 9 -3 9 -7z m202 -15 c-6 -6 -8 -24 -5 -39 4 -22 2 -29 -10 -29
-9 0 -19 5 -23 11 -4 8 -9 7 -15 -2 -14 -24 -19 -4 -7 29 7 19 19 32 30 32 9
0 20 5 23 11 4 6 10 8 13 4 3 -3 1 -10 -6 -17z m-4567 -28 c3 -5 1 -10 -4 -10
-6 0 -11 5 -11 10 0 6 2 10 4 10 3 0 8 -4 11 -10z m4140 -15 c0 -11 -7 -21
-16 -23 -18 -3 -33 23 -23 39 10 17 39 5 39 -16z m109 10 c-4 -8 -10 -12 -15
-9 -11 6 -2 24 11 24 5 0 7 -7 4 -15z m-3554 -43 c1 -53 32 -95 92 -127 56
-29 58 -31 58 -71 0 -51 -18 -70 -46 -49 -10 8 -25 15 -33 15 -15 0 -111 60
-111 70 0 10 23 30 34 30 5 0 1 -7 -10 -15 -10 -8 -14 -15 -8 -15 5 0 19 7 30
15 22 17 34 19 34 6 0 -5 -11 -12 -25 -15 -14 -4 -25 -11 -25 -16 0 -14 7 -13
35 6 27 18 33 13 12 -8 -12 -11 -12 -16 1 -28 14 -13 15 -12 9 3 -3 9 -2 17 3
17 17 0 7 60 -11 65 -17 6 -43 65 -53 123 -3 20 -2 31 4 27 6 -3 10 -18 10
-33z m-690 18 c0 -5 -2 -10 -4 -10 -3 0 -8 5 -11 10 -3 6 -1 10 4 10 6 0 11
-4 11 -10z m4345 -50 c-9 -18 -19 -30 -21 -27 -3 2 3 18 13 35 23 40 29 33 8
-8z m-4198 24 c-3 -3 -12 -4 -19 -1 -8 3 -5 6 6 6 11 1 17 -2 13 -5z m4163 -8
c0 -3 -16 -21 -35 -42 -19 -20 -35 -31 -35 -24 0 14 50 69 63 70 4 0 7 -2 7
-4z m-4365 -17 c11 -17 -1 -21 -15 -4 -8 9 -8 15 -2 15 6 0 14 -5 17 -11z
m245 1 c-11 -7 -11 -10 -2 -10 7 0 10 -5 7 -10 -5 -8 -11 -7 -21 1 -21 17 -17
29 9 29 18 0 19 -2 7 -10z m4368 -11 c-2 -6 -8 -10 -13 -10 -5 0 -11 4 -13 10
-2 6 4 11 13 11 9 0 15 -5 13 -11z m-4708 -14 c0 -8 -4 -15 -10 -15 -5 0 -7 7
-4 15 4 8 8 15 10 15 2 0 4 -7 4 -15z m234 -50 c16 -25 17 -27 2 -16 -9 8 -24
27 -32 42 -16 33 -19 53 -2 24 6 -11 20 -33 32 -50z m253 43 c-3 -8 -6 -5 -6
6 -1 11 2 17 5 13 3 -3 4 -12 1 -19z m4143 -20 c0 -22 -17 -41 -24 -29 -4 6
-3 11 3 11 6 0 8 7 5 15 -4 8 -1 15 5 15 6 0 11 -6 11 -12z m-3826 -30 c4 3 4
-1 0 -11 -8 -22 -20 -22 -28 1 -3 9 -9 24 -12 32 -3 8 3 5 14 -7 11 -12 23
-19 26 -15z m-314 6 c0 -2 -7 -4 -15 -4 -8 0 -15 4 -15 10 0 5 7 7 15 4 8 -4
15 -8 15 -10z m3984 -44 c-14 -14 -39 14 -29 31 5 8 12 6 23 -5 11 -11 13 -19
6 -26z m-4297 -16 c-9 -9 -27 6 -27 22 0 13 2 13 16 -1 9 -9 14 -18 11 -21z
m3993 11 c0 -8 -4 -15 -10 -15 -5 0 -10 7 -10 15 0 8 5 15 10 15 6 0 10 -7 10
-15z m388 -30 c-16 -16 -82 -29 -73 -15 3 6 15 10 25 10 11 0 27 11 37 24 14
19 19 21 21 9 2 -8 -2 -21 -10 -28z m57 36 c3 -5 1 -12 -5 -16 -5 -3 -10 1
-10 9 0 18 6 21 15 7z m-210 -20 c-3 -6 -11 -11 -17 -11 -6 0 -6 6 2 15 14 17
26 13 15 -4z m-332 -21 c-6 -22 -28 -27 -39 -8 -8 12 24 40 37 33 4 -3 5 -14
2 -25z m157 21 c0 -5 -7 -14 -15 -21 -12 -10 -15 -10 -15 2 0 8 3 18 7 21 9
10 23 9 23 -2z m-3940 -42 c0 -6 -9 -13 -20 -16 -11 -3 -20 -9 -20 -13 0 -4
-9 -10 -20 -13 -28 -7 -25 8 5 21 14 6 25 16 25 22 0 5 7 10 15 10 8 0 15 -5
15 -11z m4330 -19 c-7 -4 -10 -12 -6 -18 3 -6 2 -13 -4 -17 -5 -3 -10 -1 -10
6 0 7 -8 9 -21 6 -13 -3 -19 -1 -16 6 2 7 14 13 26 15 12 2 25 11 28 20 5 12
8 13 11 3 2 -7 -1 -17 -8 -21z m-262 -12 c-3 -25 -36 -37 -48 -17 -13 20 0 39
27 39 20 0 24 -4 21 -22z m-4208 -18 c0 -5 -2 -10 -4 -10 -3 0 -8 5 -11 10 -3
6 -1 10 4 10 6 0 11 -4 11 -10z m534 -6 c4 -10 1 -14 -6 -12 -15 5 -23 28 -10
28 5 0 13 -7 16 -16z m3700 -18 c-3 -9 -10 -16 -15 -16 -6 0 -5 9 1 21 13 24
24 20 14 -5z m-3964 -7 c0 -6 -4 -7 -10 -4 -5 3 -10 11 -10 16 0 6 5 7 10 4 6
-3 10 -11 10 -16z m4105 2 c-3 -6 -11 -11 -17 -11 -6 0 -6 6 2 15 14 17 26 13
15 -4z m-95 -1 c0 -5 -2 -10 -4 -10 -3 0 -8 5 -11 10 -3 6 -1 10 4 10 6 0 11
-4 11 -10z m-4060 -16 c0 -8 -4 -12 -10 -9 -5 3 -10 10 -10 16 0 5 5 9 10 9 6
0 10 -7 10 -16z m240 0 c0 -17 -22 -14 -28 4 -2 7 3 12 12 12 9 0 16 -7 16
-16z m-381 -36 c-1 -41 -1 -42 -11 -15 -5 15 -7 34 -4 42 10 27 16 16 15 -27z
m4271 27 c7 -9 21 -14 31 -13 10 2 18 0 19 -4 2 -36 0 -40 -14 -28 -8 6 -23
11 -33 10 -10 -1 -28 -2 -40 -1 -20 1 -21 3 -11 26 13 29 30 32 48 10z m-4353
-27 c-3 -8 -6 -5 -6 6 -1 11 2 17 5 13 3 -3 4 -12 1 -19z m4027 7 c-4 -8 -10
-15 -15 -15 -5 0 -9 7 -9 15 0 8 7 15 15 15 9 0 12 -6 9 -15z m110 -10 c-4 -8
-10 -15 -15 -15 -5 0 -9 7 -9 15 0 8 7 15 15 15 9 0 12 -6 9 -15z m-260 -36
c-3 -5 -10 -7 -15 -3 -5 3 -7 10 -3 15 3 5 10 7 15 3 5 -3 7 -10 3 -15z m171
11 c3 -5 -1 -10 -10 -10 -9 0 -13 5 -10 10 3 6 8 10 10 10 2 0 7 -4 10 -10z
m-3541 -16 c20 -19 20 -34 2 -34 -16 0 -46 26 -46 41 0 14 27 11 44 -7z m-220
-28 c-7 -30 -24 -35 -24 -8 0 18 20 45 27 38 2 -2 1 -15 -3 -30z m91 24 c3 -5
2 -10 -4 -10 -5 0 -13 5 -16 10 -3 6 -2 10 4 10 5 0 13 -4 16 -10z m3325 -39
c0 -19 -26 -48 -36 -39 -7 8 14 58 26 58 5 0 10 -8 10 -19z m450 8 c0 -15 -23
-69 -29 -69 -4 0 -6 14 -3 30 3 18 0 30 -7 30 -6 0 -11 4 -11 9 0 5 11 8 25 7
14 0 25 -4 25 -7z m-4025 -25 c0 -10 -8 -20 -17 -22 -18 -3 -26 27 -11 42 12
11 28 0 28 -20z m4091 -22 c-11 -10 -15 4 -8 28 l7 25 3 -23 c2 -13 1 -26 -2
-30z m-4181 28 c3 -5 2 -10 -4 -10 -5 0 -13 5 -16 10 -3 6 -2 10 4 10 5 0 13
-4 16 -10z m4025 -5 c0 -8 -4 -15 -10 -15 -5 0 -10 7 -10 15 0 8 5 15 10 15 6
0 10 -7 10 -15z m-3832 -45 c-2 -8 -10 -15 -18 -15 -17 0 -25 28 -15 53 6 15
8 15 21 -3 8 -11 13 -26 12 -35z m4052 19 c0 -5 -7 -9 -15 -9 -9 0 -15 9 -15
21 0 18 2 19 15 9 8 -7 15 -16 15 -21z m-340 11 c0 -8 -61 -40 -76 -40 -15 0
2 19 29 33 38 19 47 20 47 7z m-3440 -16 c0 -9 -5 -14 -12 -12 -18 6 -21 28
-4 28 9 0 16 -7 16 -16z m3703 -81 c-3 -32 -12 -65 -19 -74 -8 -8 -14 -22 -14
-30 0 -8 -16 -27 -35 -42 -25 -20 -34 -34 -30 -47 4 -11 -4 -29 -19 -47 -22
-25 -25 -26 -31 -10 -4 9 -3 30 3 45 24 64 24 82 -3 94 -26 12 -29 17 -19 42
14 35 60 3 66 -46 3 -26 5 -27 27 -15 13 6 30 28 36 47 26 77 28 83 15 75 -9
-5 -10 -1 -5 15 6 19 25 48 32 50 1 0 -1 -26 -4 -57z m-3815 24 c2 -10 -4 -20
-13 -23 -21 -9 -28 0 -20 26 8 24 28 22 33 -3z m3900 11 c-3 -7 -13 -15 -24
-17 -16 -3 -17 -1 -5 13 16 19 34 21 29 4z m-4130 -33 c-3 -3 -9 2 -12 12 -6
14 -5 15 5 6 7 -7 10 -15 7 -18z m161 2 c6 -8 8 -17 4 -20 -11 -12 -23 -7 -23
9 0 8 -4 12 -10 9 -5 -3 -10 -1 -10 4 0 15 25 14 39 -2z m3671 3 c0 -5 -4 -10
-10 -10 -5 0 -10 5 -10 10 0 6 5 10 10 10 6 0 10 -4 10 -10z m114 -9 c3 -5 -1
-12 -10 -15 -20 -8 -29 -1 -19 13 8 13 22 14 29 2z m-54 -11 c0 -5 -5 -10 -11
-10 -5 0 -7 5 -4 10 3 6 8 10 11 10 2 0 4 -4 4 -10z m-3626 -16 c9 -24 4 -24
-18 -3 -16 16 -17 19 -4 19 9 0 19 -7 22 -16z m-224 -35 c0 -11 9 -28 21 -40
24 -24 24 -25 -15 -35 -28 -7 -29 -6 -22 28 3 20 2 48 -4 63 -9 25 -9 26 5 15
8 -7 15 -21 15 -31z m35 31 c3 -5 1 -10 -4 -10 -6 0 -11 5 -11 10 0 6 2 10 4
10 3 0 8 -4 11 -10z m3725 -15 c0 -8 -4 -15 -10 -15 -5 0 -10 7 -10 15 0 8 5
15 10 15 6 0 10 -7 10 -15z m-3420 -23 c0 -15 -2 -15 -10 -2 -13 20 -13 33 0
25 6 -3 10 -14 10 -23z m3702 6 c-7 -7 -12 -8 -12 -2 0 14 12 26 19 19 2 -3
-1 -11 -7 -17z m-3988 -13 c3 -8 1 -15 -4 -15 -6 0 -10 7 -10 15 0 8 2 15 4
15 2 0 6 -7 10 -15z m186 -10 c7 -9 8 -15 2 -15 -5 0 -12 7 -16 15 -3 8 -4 15
-2 15 2 0 9 -7 16 -15z m3310 6 c0 -12 -20 -25 -27 -18 -7 7 6 27 18 27 5 0 9
-4 9 -9z m130 5 c0 -3 -4 -8 -10 -11 -5 -3 -10 -1 -10 4 0 6 5 11 10 11 6 0
10 -2 10 -4z m125 -6 c-3 -5 -10 -10 -16 -10 -5 0 -9 5 -9 10 0 6 7 10 16 10
8 0 12 -4 9 -10z m-95 -14 c0 -3 -4 -8 -10 -11 -5 -3 -10 -1 -10 4 0 6 5 11
10 11 6 0 10 -2 10 -4z m-3647 -26 c-3 -11 -7 -20 -9 -20 -2 0 -4 9 -4 20 0
11 4 20 9 20 5 0 7 -9 4 -20z m422 -35 c0 -28 -29 -25 -33 3 -3 19 0 23 15 20
10 -2 18 -12 18 -23z m-388 -37 c-8 -5 -4 -15 12 -32 15 -16 21 -31 17 -42 -3
-9 -1 -24 6 -33 12 -14 11 -14 -11 0 -14 8 -31 26 -40 40 -15 24 -15 24 5 7
11 -10 23 -18 27 -18 9 0 -31 66 -49 80 -7 7 -14 17 -14 22 0 6 6 6 14 -1 12
-10 13 -8 9 11 -6 23 -6 23 15 -2 14 -17 17 -27 9 -32z m103 -1 c-10 -10 -12
-9 -7 6 4 11 1 17 -8 17 -18 0 -20 17 -2 23 19 7 33 -31 17 -46z m69 27 c12
-14 20 -29 16 -32 -4 -4 -13 2 -20 13 -8 11 -19 26 -25 33 -6 6 -7 12 -2 12 5
0 19 -12 31 -26z m3321 -44 c-6 -11 -15 -18 -21 -15 -14 10 -11 37 9 58 17 19
17 19 20 -1 2 -12 -2 -30 -8 -42z m-3172 7 c3 -27 -11 -37 -24 -16 -3 6 0 15
7 20 11 7 10 9 -4 9 -10 0 -15 5 -12 11 11 17 30 4 33 -24z m2927 23 c-3 -5
-10 -10 -16 -10 -5 0 -9 5 -9 10 0 6 7 10 16 10 8 0 12 -4 9 -10z m463 -6 c29
-8 28 -18 -5 -33 -29 -14 -49 -2 -40 23 7 18 11 19 45 10z m-398 -14 c0 -5 -7
-10 -16 -10 -8 0 -12 5 -9 10 3 6 10 10 16 10 5 0 9 -4 9 -10z m330 -9 c0 -5
-7 -12 -16 -15 -24 -9 -28 -7 -14 9 14 17 30 20 30 6z m-573 -36 c-4 -8 -11
-15 -17 -15 -14 0 -13 27 3 33 16 6 21 1 14 -18z m-2855 -20 c11 -14 30 -25
43 -25 12 0 28 -7 35 -15 10 -12 10 -15 -1 -15 -20 0 -119 59 -119 70 0 18 22
10 42 -15z m-84 -10 c-3 -3 -9 2 -12 12 -6 14 -5 15 5 6 7 -7 10 -15 7 -18z
m532 -11 c0 -9 -5 -14 -12 -12 -18 6 -21 28 -4 28 9 0 16 -7 16 -16z m2470 1
c0 -8 -7 -15 -15 -15 -16 0 -20 12 -8 23 11 12 23 8 23 -8z m235 -15 c3 -11
11 -20 16 -20 5 0 9 -9 9 -20 0 -13 -7 -20 -20 -20 -15 0 -20 7 -20 24 0 14
-4 28 -10 31 -15 9 -12 25 4 25 8 0 18 -9 21 -20z m215 -5 c-7 -8 -20 -15 -29
-15 -9 0 -29 -7 -45 -15 -16 -9 -31 -13 -33 -11 -16 16 52 55 96 56 20 0 21
-2 11 -15z m-2942 -14 c22 -19 29 -41 13 -41 -5 0 -11 7 -15 15 -3 8 -12 15
-21 15 -8 0 -15 7 -15 15 0 20 10 18 38 -4z m2570 -24 c-7 -14 -13 -17 -16 -9
-6 19 6 44 18 37 7 -4 6 -14 -2 -28z m-3008 14 c0 -6 -4 -13 -10 -16 -5 -3
-10 1 -10 9 0 9 5 16 10 16 6 0 10 -4 10 -9z m690 -7 c0 -9 -5 -14 -12 -12
-18 6 -21 28 -4 28 9 0 16 -7 16 -16z m-780 -4 c0 -5 -2 -10 -4 -10 -3 0 -8 5
-11 10 -3 6 -1 10 4 10 6 0 11 -4 11 -10z m110 -5 c0 -8 -4 -15 -10 -15 -5 0
-7 7 -4 15 4 8 8 15 10 15 2 0 4 -7 4 -15z m129 -11 c3 -16 1 -17 -13 -5 -19
16 -21 34 -3 29 6 -3 14 -13 16 -24z m149 7 c3 -8 -1 -12 -9 -9 -7 2 -15 10
-17 17 -3 8 1 12 9 9 7 -2 15 -10 17 -17z m3222 9 c0 -5 -12 -10 -26 -10 -14
0 -23 4 -19 10 3 6 15 10 26 10 10 0 19 -4 19 -10z m-318 -42 c-7 -7 -12 -8
-12 -2 0 14 12 26 19 19 2 -3 -1 -11 -7 -17z m291 15 c-7 -2 -19 -2 -25 0 -7
3 -2 5 12 5 14 0 19 -2 13 -5z m-3523 -29 c0 -31 -23 -28 -28 4 -2 15 2 22 12
22 11 0 16 -9 16 -26z m130 22 c0 -2 -9 -6 -20 -9 -11 -3 -18 -1 -14 4 5 9 34
13 34 5z m3300 -16 c0 -5 -6 -10 -14 -10 -19 0 -40 -26 -26 -35 5 -3 10 1 10
9 0 9 4 16 8 16 4 0 8 -9 8 -20 0 -25 -34 -27 -43 -3 -4 10 2 23 16 35 26 20
41 23 41 8z m-3293 -6 c-3 -4 0 -22 8 -41 13 -32 13 -34 0 -23 -8 7 -15 21
-15 31 0 11 -7 19 -17 20 -15 0 -15 2 2 9 25 11 30 12 22 4z m143 -30 c0 -8
-4 -12 -10 -9 -5 3 -10 10 -10 16 0 5 5 9 10 9 6 0 10 -7 10 -16z m2840 7 c0
-6 -4 -13 -10 -16 -5 -3 -10 1 -10 9 0 9 5 16 10 16 6 0 10 -4 10 -9z m-2754
-28 c-7 -7 -26 7 -26 19 0 6 6 6 15 -2 9 -7 13 -15 11 -17z m2414 23 c0 -16
-14 -36 -26 -36 -14 0 -19 22 -7 33 7 8 33 10 33 3z m121 -11 c0 -6 -10 -12
-23 -13 -19 -4 -20 -2 -9 12 15 17 33 18 32 1z m424 -6 c-8 -12 -35 -12 -35 0
0 11 22 20 33 14 4 -2 5 -9 2 -14z m-645 -9 c0 -5 -7 -10 -15 -10 -8 0 -15 5
-15 10 0 6 7 10 15 10 8 0 15 -4 15 -10z m-2602 -21 c3 -11 2 -11 -7 1 -9 13
-11 12 -11 -3 0 -10 -4 -16 -10 -12 -12 7 -1 37 13 32 6 -2 12 -10 15 -18z
m3192 11 c0 -5 -12 -13 -27 -16 -16 -4 -36 -14 -45 -22 -16 -14 -18 -13 -18 1
0 9 10 23 22 31 25 18 68 21 68 6z m-3026 -9 c4 -5 3 -16 0 -25 -5 -12 -10
-13 -30 -4 -13 6 -24 17 -24 25 0 15 46 18 54 4z m206 -11 c0 -5 -4 -10 -10
-10 -5 0 -10 5 -10 10 0 6 5 10 10 10 6 0 10 -4 10 -10z m2498 -24 c5 -24 -10
-38 -31 -30 -17 6 -23 35 -10 48 12 12 38 1 41 -18z m-2790 2 c16 -16 15 -28
-3 -28 -8 0 -15 6 -15 14 0 8 -8 17 -17 19 -15 4 -14 5 3 6 11 0 25 -4 32 -11z
m2956 -20 c9 -17 16 -37 16 -45 0 -15 33 -17 60 -3 13 7 21 7 25 0 4 -6 15 -8
25 -5 26 8 35 -13 15 -35 -20 -23 -35 -18 -35 12 0 15 -4 18 -17 13 -46 -19
-82 -22 -87 -9 -3 8 -15 14 -28 14 -17 0 -19 3 -10 12 22 22 13 30 -28 26 -43
-4 -49 5 -23 34 27 30 69 23 87 -14z m-1966 -6 c3 -16 -2 -22 -16 -22 -22 0
-32 17 -24 38 7 20 37 9 40 -16z m2182 18 c0 -5 -7 -10 -15 -10 -9 0 -12 -6
-9 -15 4 -8 1 -15 -5 -15 -15 0 -14 23 1 38 15 15 28 16 28 2z m-3030 -15 c0
-8 -7 -15 -15 -15 -8 0 -15 7 -15 15 0 8 7 15 15 15 8 0 15 -7 15 -15z m2060
0 c0 -8 -7 -15 -15 -15 -8 0 -15 7 -15 15 0 8 7 15 15 15 8 0 15 -7 15 -15z
m-2142 -23 c2 -7 -2 -10 -12 -6 -9 3 -16 11 -16 16 0 13 23 5 28 -10z m2252 4
c0 -3 -4 -8 -10 -11 -5 -3 -10 -1 -10 4 0 6 5 11 10 11 6 0 10 -2 10 -4z m60
-5 c0 -11 -26 -22 -34 -14 -12 12 -5 23 14 23 11 0 20 -4 20 -9z m288 -13 c-5
-16 -48 -24 -48 -10 0 11 17 20 38 21 8 1 12 -5 10 -11z m-2393 -15 c47 -22
44 -31 -7 -24 -30 4 -44 11 -46 24 -4 21 8 22 53 0z m2255 -18 c0 -8 -5 -17
-11 -21 -16 -9 -30 18 -17 33 12 15 28 8 28 -12z m330 15 c20 -13 9 -20 -35
-23 -22 -1 -40 3 -42 10 -7 19 52 29 77 13z m-2759 -28 c11 -12 24 -20 29 -17
14 9 50 -13 50 -30 0 -8 -4 -15 -10 -15 -5 0 -10 6 -10 13 0 7 -8 13 -17 14
-53 3 -100 19 -119 38 l-21 23 38 -2 c25 -1 46 -10 60 -24z m284 16 c2 -7 6
-31 10 -53 6 -35 5 -38 -8 -25 -19 19 -32 90 -17 90 6 0 12 -6 15 -12z m2231
-3 c7 -17 -21 -65 -37 -65 -10 0 -4 52 8 73 7 12 23 8 29 -8z m-1276 -21 c0
-14 -21 -19 -33 -7 -9 9 13 34 24 27 5 -3 9 -12 9 -20z m-840 -9 c0 -25 -23
-35 -35 -15 -10 16 2 40 20 40 9 0 15 -9 15 -25z m1540 -5 c0 -5 -7 -10 -15
-10 -8 0 -15 5 -15 10 0 6 7 10 15 10 8 0 15 -4 15 -10z m170 -14 c0 -16 -27
-29 -42 -20 -7 5 -4 12 7 21 24 17 35 17 35 -1z m685 -12 c0 -10 -8 -20 -17
-22 -18 -3 -26 27 -11 42 12 11 28 0 28 -20z m-2159 5 c3 -6 2 -15 -3 -20 -13
-13 -43 -1 -43 17 0 16 36 19 46 3z m2274 2 c0 -11 -39 -25 -47 -18 -3 3 -2
10 2 16 8 13 45 15 45 2z m-2775 -11 c3 -5 -1 -10 -9 -10 -9 0 -16 5 -16 10 0
6 4 10 9 10 6 0 13 -4 16 -10z m2175 -5 c0 -8 -9 -15 -20 -15 -20 0 -26 11
-13 23 12 13 33 7 33 -8z m285 -1 c15 -10 37 -14 55 -12 35 5 41 -15 10 -32
-11 -6 -20 -8 -20 -4 0 3 -7 1 -15 -6 -17 -14 -3 -50 20 -50 8 0 15 -4 15 -10
0 -14 -32 -12 -52 3 -9 7 -19 29 -23 50 -4 20 -13 41 -21 48 -34 28 -8 39 31
13z m-1659 -22 c-9 -9 -37 8 -31 18 5 8 11 7 21 -1 8 -6 12 -14 10 -17z m614
8 c0 -5 7 -10 15 -10 8 0 15 -9 15 -20 0 -11 -7 -20 -15 -20 -8 0 -15 7 -15
15 0 9 -7 18 -15 21 -8 4 -15 10 -15 15 0 5 7 9 15 9 8 0 15 -4 15 -10z m-360
-9 c0 -5 -6 -11 -12 -14 -18 -6 -39 3 -32 14 7 12 44 12 44 0z m640 -6 c0 -16
-35 -21 -44 -6 -8 12 4 21 26 21 10 0 18 -7 18 -15z m-1623 -12 c3 -10 13 -26
21 -36 22 -25 8 -32 -22 -10 -14 10 -26 28 -26 41 0 26 18 30 27 5z m243 7 c0
-5 -4 -10 -10 -10 -5 0 -10 5 -10 10 0 6 5 10 10 10 6 0 10 -4 10 -10z m1973
-22 c-8 -43 -9 -44 -23 -18 -14 26 -7 50 14 50 12 0 14 -7 9 -32z m-2274 3 c8
-15 7 -20 -5 -25 -20 -8 -54 11 -54 29 0 22 47 19 59 -4z m171 -7 c0 -15 -9
-17 -34 -8 -21 8 -20 22 2 27 22 5 32 -1 32 -19z m1214 17 c3 -4 -3 -16 -14
-26 -23 -21 -47 -8 -37 19 7 17 42 22 51 7z m494 -16 c-3 -14 -1 -28 3 -31 14
-8 10 -24 -5 -24 -15 0 -27 45 -19 67 9 23 25 14 21 -12z m785 13 c36 -1 49
-12 25 -20 -7 -2 -41 -2 -76 0 -54 3 -61 6 -51 18 8 10 22 13 38 9 14 -3 43
-6 64 -7z m-1053 -19 c0 -24 -23 -21 -28 4 -2 10 3 17 12 17 10 0 16 -9 16
-21z m508 -1 c-3 -7 -15 -15 -28 -16 -21 -3 -22 -2 -11 12 16 19 44 21 39 4z
m-1748 -20 c0 -13 -32 -6 -37 9 -3 7 3 9 16 6 12 -3 21 -10 21 -15z m268 -16
c3 -9 -2 -13 -14 -10 -9 1 -19 9 -22 16 -3 9 2 13 14 10 9 -1 19 -9 22 -16z
m1730 1 c-28 -33 -27 -39 4 -41 17 -1 38 -7 47 -11 16 -10 5 -14 -54 -23 -13
-2 -23 -16 -30 -42 -14 -47 -26 -54 -112 -62 -60 -6 -71 -4 -76 11 -5 13 -14
15 -37 10 -24 -5 -34 -2 -50 17 -11 12 -19 26 -20 31 0 13 45 8 66 -8 10 -8
29 -15 41 -15 12 0 25 -4 28 -10 3 -5 26 -10 51 -10 38 0 49 5 79 37 39 41 41
48 21 56 -7 3 -23 -7 -35 -24 -12 -16 -26 -27 -32 -24 -13 9 23 57 55 74 14 8
28 22 32 33 3 10 12 18 21 18 14 0 14 -2 1 -17z m-2083 -3 c-3 -5 -10 -10 -16
-10 -5 0 -9 5 -9 10 0 6 7 10 16 10 8 0 12 -4 9 -10z m225 -5 c8 -9 8 -15 2
-15 -18 0 -42 12 -42 21 0 14 26 10 40 -6z m1495 -20 c0 -23 -4 -30 -20 -30
-21 0 -31 25 -21 51 11 28 41 12 41 -21z m305 25 c0 -13 -28 -25 -38 -16 -3 4
0 11 8 16 20 13 30 12 30 0z m-1542 -16 c-5 -29 -35 -41 -54 -22 -22 21 -10
38 27 38 23 0 30 -4 27 -16z m1407 -14 c0 -16 -6 -26 -18 -28 -19 -4 -32 20
-23 44 9 25 41 13 41 -16z m-1297 1 c3 -8 -1 -12 -9 -9 -7 2 -15 10 -17 17 -3
8 1 12 9 9 7 -2 15 -10 17 -17z m270 -4 c2 -10 -3 -17 -12 -17 -18 0 -29 16
-21 31 9 14 29 6 33 -14z m302 3 c0 -11 -6 -20 -14 -20 -18 0 -29 16 -21 30
11 18 35 11 35 -10z m1120 10 c0 -12 -25 -30 -42 -30 -20 0 -21 2 -12 23 5 14
54 19 54 7z m-2292 -15 c2 -2 2 -11 -1 -19 -5 -12 -12 -13 -37 -5 -42 15 -41
44 2 35 17 -3 34 -8 36 -11z m1030 -3 c5 -17 -27 -27 -41 -13 -9 9 -8 14 3 21
18 11 32 8 38 -8z m392 -7 c0 -8 -6 -15 -14 -15 -17 0 -28 14 -19 24 12 12 33
6 33 -9z m-632 -12 c-2 -13 -15 -19 -47 -21 -48 -4 -55 17 -10 29 44 13 61 10
57 -8z m-134 -18 c20 -31 21 -46 1 -39 -8 4 -15 12 -15 20 0 8 -7 14 -15 14
-8 0 -15 7 -15 15 0 23 26 18 44 -10z m656 15 c0 -5 -4 -10 -10 -10 -5 0 -10
5 -10 10 0 6 5 10 10 10 6 0 10 -4 10 -10z m-1125 -31 c15 -15 -14 -29 -39
-20 -12 5 -26 6 -33 4 -7 -2 -22 1 -34 7 -17 10 -19 14 -8 21 17 10 100 1 114
-12z m198 12 c4 0 7 -8 7 -16 0 -10 -10 -15 -34 -15 -43 0 -66 9 -66 24 0 10
53 14 93 7z m717 5 c0 -3 -4 -8 -10 -11 -5 -3 -10 -1 -10 4 0 6 5 11 10 11 6
0 10 -2 10 -4z m-850 -21 c10 -12 9 -16 -4 -21 -18 -7 -49 13 -40 27 8 14 30
11 44 -6z m1318 -1 c3 -11 -43 -17 -74 -10 -13 4 -24 11 -24 16 0 11 94 5 98
-6z m-1058 -4 c0 -5 -9 -10 -20 -10 -11 0 -20 5 -20 10 0 6 9 10 20 10 11 0
20 -4 20 -10z m464 -15 c6 -16 -19 -39 -34 -30 -11 7 -14 38 -4 48 9 8 32 -2
38 -18z m380 9 c4 -11 1 -14 -11 -12 -9 2 -18 9 -21 16 -6 18 25 15 32 -4z
m-1317 -13 c-3 -13 3 -23 22 -32 23 -11 24 -13 6 -17 -12 -3 -27 5 -42 24 -28
36 -29 44 -2 44 16 0 20 -5 16 -19z m528 11 c13 -9 35 -49 35 -62 0 -6 -10 -8
-24 -4 -13 3 -27 1 -30 -5 -13 -21 -36 0 -30 28 11 43 28 59 49 43z m695 -22
c0 -21 -24 -28 -35 -10 -8 14 3 30 21 30 8 0 14 -9 14 -20z m390 5 c0 -9 -9
-15 -25 -15 -24 0 -32 10 -18 23 12 13 43 7 43 -8z m79 -35 c6 0 11 -5 11 -10
0 -6 -10 -8 -24 -4 -13 3 -34 0 -46 -6 -16 -8 -25 -9 -33 -1 -7 7 -3 13 15 20
15 5 29 15 34 22 5 9 10 8 19 -4 7 -10 17 -17 24 -17z m-1579 5 c7 -8 18 -15
26 -15 7 0 20 -10 28 -22 35 -50 10 -51 -55 -1 -46 34 -54 53 -25 53 8 0 19
-7 26 -15z m200 -9 c60 -1 75 -4 78 -17 2 -13 -9 -18 -59 -23 -39 -5 -66 -3
-72 3 -6 6 -22 11 -35 11 -29 0 -62 17 -62 31 0 7 13 9 38 4 20 -4 71 -8 112
-9z m517 -12 c-3 -4 -14 -3 -24 0 -15 6 -15 8 -3 16 16 10 39 -4 27 -16z m213
2 c0 -8 -5 -18 -10 -21 -13 -8 -42 14 -34 26 9 15 44 10 44 -5z m335 4 c3 -5
-1 -10 -10 -10 -9 0 -13 5 -10 10 3 6 8 10 10 10 2 0 7 -4 10 -10z m-619 -25
c3 -14 3 -36 0 -50 -7 -26 -5 -28 45 -39 15 -3 29 -14 31 -24 4 -14 18 -21 54
-25 27 -3 50 -4 52 -2 2 2 -2 13 -8 25 -8 16 -8 25 0 35 9 11 4 16 -24 26 -51
19 -44 26 19 21 33 -3 60 0 68 7 15 12 27 5 27 -15 0 -7 -13 -15 -30 -19 -28
-6 -43 -25 -20 -25 6 0 10 -9 10 -21 0 -13 11 -25 35 -35 64 -26 34 -47 -34
-23 -25 9 -38 9 -57 -1 -19 -11 -31 -11 -66 0 -64 20 -115 47 -121 65 -4 9
-19 15 -42 15 -28 0 -38 -5 -47 -24 -20 -46 -71 -44 -66 2 2 20 11 28 36 34
101 25 97 22 99 53 2 45 2 45 18 45 8 0 17 -11 21 -25z m379 15 c-3 -5 -13
-10 -21 -10 -8 0 -14 5 -14 10 0 6 9 10 21 10 11 0 17 -4 14 -10z m345 -25 c0
-37 -8 -43 -28 -23 -16 16 -15 45 1 51 24 10 27 7 27 -28z m-790 6 c0 -16 -18
-22 -45 -15 -37 9 -31 24 10 24 19 0 35 -4 35 -9z m1076 -16 l23 -25 -25 0
c-14 0 -37 -6 -52 -14 -15 -7 -58 -21 -97 -31 -38 -10 -76 -23 -83 -28 -14
-11 -65 29 -56 44 7 13 41 11 62 -2 28 -17 155 24 176 57 20 30 23 30 52 -1z
m-1272 9 c26 -10 18 -23 -13 -21 -16 1 -27 5 -25 9 2 3 -4 9 -13 11 -12 3 -8
5 9 6 14 0 33 -2 42 -5z m341 -24 c0 -22 -39 -19 -43 3 -3 15 1 18 20 15 12
-2 23 -10 23 -18z m382 3 c4 -11 -18 -38 -39 -47 -10 -3 -8 -8 5 -16 23 -14
22 -35 -3 -60 -31 -31 -49 -25 -56 20 -8 50 -19 58 -43 29 -18 -23 -41 -19
-41 7 0 8 10 14 25 14 16 0 25 6 25 15 0 11 12 15 44 15 36 0 46 4 51 21 7 20
26 22 32 2z m121 -8 c-3 -30 -38 -31 -38 -2 0 16 6 23 20 23 14 0 19 -6 18
-21z m-772 -49 c-2 -27 -9 -42 -19 -44 -12 -2 -15 7 -14 46 2 41 5 48 19 44
14 -3 17 -13 14 -46z m-143 28 c20 -4 37 -11 37 -16 0 -5 -9 -6 -20 -3 -11 3
-47 8 -81 10 -34 2 -64 6 -67 9 -7 8 84 7 131 0z m1027 -3 c0 -5 -9 -12 -19
-16 -10 -3 -21 -14 -24 -25 -5 -21 -47 -36 -72 -26 -28 10 2 44 53 60 58 18
62 18 62 7z m-167 -32 c-3 -12 0 -25 7 -29 19 -12 2 -30 -27 -30 -21 0 -23 2
-13 15 7 8 9 22 6 32 -4 9 -1 20 6 25 21 13 26 9 21 -13z m-803 -9 c26 -16 4
-21 -26 -5 -23 12 -25 15 -9 15 11 0 27 -4 35 -10z m275 -40 c-3 -5 -32 -9
-63 -9 -51 1 -53 2 -22 9 54 11 92 11 85 0z"/>
<path d="M1070 4490 c0 -5 5 -10 10 -10 6 0 10 5 10 10 0 6 -4 10 -10 10 -5 0
-10 -4 -10 -10z"/>
<path d="M2555 3509 c-10 -15 3 -25 16 -12 7 7 7 13 1 17 -6 3 -14 1 -17 -5z"/>
<path d="M2543 3473 c-22 -4 -46 -53 -37 -76 3 -7 15 -20 28 -29 31 -22 76
-11 96 25 13 24 13 28 -6 54 -21 28 -40 34 -81 26z m49 -37 c14 -32 4 -56 -22
-56 -11 0 -23 7 -27 16 -7 18 12 64 27 64 6 0 15 -11 22 -24z"/>
<path d="M2630 3465 c12 -15 30 -12 30 6 0 5 -10 9 -21 9 -18 0 -19 -2 -9 -15z"/>
<path d="M2480 3444 c0 -8 5 -12 10 -9 6 3 10 10 10 16 0 5 -4 9 -10 9 -5 0
-10 -7 -10 -16z"/>
<path d="M2645 3380 c-3 -5 1 -10 9 -10 9 0 16 5 16 10 0 6 -4 10 -9 10 -6 0
-13 -4 -16 -10z"/>
<path d="M2485 3370 c-9 -15 -1 -23 21 -18 15 3 16 4 1 16 -11 9 -17 10 -22 2z"/>
<path d="M2565 3331 c-3 -5 -1 -12 5 -16 12 -7 30 2 30 16 0 12 -27 12 -35 0z"/>
<path d="M2705 2730 c-46 -7 -74 -24 -107 -65 -32 -41 -38 -155 -10 -205 38
-68 114 -98 204 -78 40 8 54 18 88 60 37 47 40 55 40 113 0 58 -3 66 -41 114
-22 28 -50 53 -62 55 -48 10 -74 11 -112 6z"/>
<path d="M3242 2563 l3 -178 92 0 c78 0 96 3 120 21 42 31 64 77 70 142 4 49
1 65 -24 112 -34 66 -62 78 -181 79 l-82 1 2 -177z"/>
<path d="M4058 2813 c23 -5 46 -35 35 -47 -3 -3 9 -6 28 -6 31 0 35 3 37 30
l2 30 -62 -1 c-35 -1 -53 -4 -40 -6z"/>
<path d="M4058 2793 c7 -3 16 -2 19 1 4 3 -2 6 -13 5 -11 0 -14 -3 -6 -6z"/>
<path d="M4070 2590 c-13 -8 -13 -10 2 -10 9 0 24 -3 32 -6 12 -5 15 -2 10 10
-7 18 -22 20 -44 6z"/>
<path d="M4103 2545 c0 -8 4 -15 9 -15 4 0 8 7 8 15 0 8 -4 15 -8 15 -5 0 -9
-7 -9 -15z"/>
<path d="M307 2703 c-10 -9 -9 -23 2 -23 5 0 11 7 15 15 5 15 -5 20 -17 8z"/>
<path d="M5037 2529 c-4 -16 -3 -18 9 -8 7 6 11 15 8 20 -8 13 -11 11 -17 -12z"/>
<path d="M4087 1814 c-4 -4 -7 -17 -7 -30 0 -12 -6 -25 -12 -27 -7 -3 1 -4 17
-3 26 1 30 5 30 30 0 29 -14 43 -28 30z m10 -36 c-3 -7 -5 -2 -5 12 0 14 2 19
5 13 2 -7 2 -19 0 -25z"/>
<path d="M4826 1854 c-5 -14 -4 -15 9 -4 17 14 19 20 6 20 -5 0 -12 -7 -15
-16z"/>
<path d="M4910 1770 c0 -5 5 -10 10 -10 6 0 10 5 10 10 0 6 -4 10 -10 10 -5 0
-10 -4 -10 -10z"/>
<path d="M4555 1500 c-3 -5 -1 -10 4 -10 6 0 11 5 11 10 0 6 -2 10 -4 10 -3 0
-8 -4 -11 -10z"/>
<path d="M480 1290 c0 -5 5 -10 10 -10 6 0 10 5 10 10 0 6 -4 10 -10 10 -5 0
-10 -4 -10 -10z"/>
<path d="M580 1260 c0 -5 5 -10 11 -10 5 0 7 5 4 10 -3 6 -8 10 -11 10 -2 0
-4 -4 -4 -10z"/>
<path d="M4455 1091 c-3 -5 -1 -12 5 -16 5 -3 10 1 10 9 0 18 -6 21 -15 7z"/>
<path d="M570 1064 c0 -8 5 -12 10 -9 6 4 8 11 5 16 -9 14 -15 11 -15 -7z"/>
<path d="M1056 576 c10 -8 21 -12 24 -10 5 6 -21 24 -34 24 -6 0 -1 -6 10 -14z"/>
</g>
</svg>
